<mxfile host="65bd71144e">
    <diagram id="k_TsYjigaLnIS3aELAj9" name="Page-1">
        <mxGraphModel dx="4480" dy="2526" grid="1" gridSize="10" guides="1" tooltips="1" connect="1" arrows="1" fold="1" page="1" pageScale="1" pageWidth="850" pageHeight="1100" math="0" shadow="0">
            <root>
                <mxCell id="0"/>
                <mxCell id="1" parent="0"/>
                <mxCell id="281" style="edgeStyle=none;html=1;exitX=0;exitY=1;exitDx=0;exitDy=0;entryX=0.5;entryY=0;entryDx=0;entryDy=0;" edge="1" parent="1" source="2" target="8">
                    <mxGeometry relative="1" as="geometry"/>
                </mxCell>
                <mxCell id="283" style="edgeStyle=none;html=1;exitX=0;exitY=0;exitDx=0;exitDy=0;" edge="1" parent="1" source="2" target="6">
                    <mxGeometry relative="1" as="geometry"/>
                </mxCell>
                <mxCell id="284" style="edgeStyle=none;html=1;exitX=0.25;exitY=0;exitDx=0;exitDy=0;entryX=0;entryY=1;entryDx=0;entryDy=0;" edge="1" parent="1" source="2" target="7">
                    <mxGeometry relative="1" as="geometry"/>
                </mxCell>
                <mxCell id="350" style="edgeStyle=none;html=1;exitX=0;exitY=0;exitDx=0;exitDy=0;entryX=0.5;entryY=1;entryDx=0;entryDy=0;" edge="1" parent="1" source="2" target="76">
                    <mxGeometry relative="1" as="geometry"/>
                </mxCell>
                <mxCell id="379" style="edgeStyle=none;html=1;exitX=0;exitY=0.5;exitDx=0;exitDy=0;entryX=1;entryY=0.5;entryDx=0;entryDy=0;" edge="1" parent="1" source="2" target="53">
                    <mxGeometry relative="1" as="geometry"/>
                </mxCell>
                <mxCell id="387" style="edgeStyle=none;html=1;exitX=0;exitY=1;exitDx=0;exitDy=0;entryX=1;entryY=0.5;entryDx=0;entryDy=0;" edge="1" parent="1" source="2" target="4">
                    <mxGeometry relative="1" as="geometry"/>
                </mxCell>
                <mxCell id="2" value="EmpresaHospedaje" style="rounded=0;whiteSpace=wrap;html=1;" parent="1" vertex="1">
                    <mxGeometry x="120" y="140" width="120" height="60" as="geometry"/>
                </mxCell>
                <mxCell id="413" style="edgeStyle=none;html=1;exitX=0;exitY=0.5;exitDx=0;exitDy=0;entryX=1;entryY=0.25;entryDx=0;entryDy=0;" edge="1" parent="1" source="3" target="2">
                    <mxGeometry relative="1" as="geometry"/>
                </mxCell>
                <mxCell id="3" value="SitioWeb" style="ellipse;whiteSpace=wrap;html=1;" parent="1" vertex="1">
                    <mxGeometry x="310" y="115" width="120" height="80" as="geometry"/>
                </mxCell>
                <mxCell id="388" style="edgeStyle=none;html=1;exitX=0;exitY=0.5;exitDx=0;exitDy=0;entryX=1;entryY=0;entryDx=0;entryDy=0;" edge="1" parent="1" source="4" target="30">
                    <mxGeometry relative="1" as="geometry"/>
                </mxCell>
                <mxCell id="4" value="" style="rhombus;whiteSpace=wrap;html=1;" parent="1" vertex="1">
                    <mxGeometry x="-5" y="330" width="80" height="80" as="geometry"/>
                </mxCell>
                <mxCell id="5" value="IdTipoInstalacion" style="ellipse;whiteSpace=wrap;html=1;" parent="1" vertex="1">
                    <mxGeometry x="-170" y="-10" width="120" height="80" as="geometry"/>
                </mxCell>
                <mxCell id="6" value="Nombre del hotel" style="ellipse;whiteSpace=wrap;html=1;" parent="1" vertex="1">
                    <mxGeometry x="-40" y="5" width="120" height="80" as="geometry"/>
                </mxCell>
                <mxCell id="7" value="CedulaJuridica" style="ellipse;whiteSpace=wrap;html=1;" parent="1" vertex="1">
                    <mxGeometry x="100" width="120" height="80" as="geometry"/>
                </mxCell>
                <mxCell id="8" value="CorreoElectronico" style="ellipse;whiteSpace=wrap;html=1;" parent="1" vertex="1">
                    <mxGeometry x="-40" y="227.5" width="120" height="80" as="geometry"/>
                </mxCell>
                <mxCell id="306" style="edgeStyle=none;html=1;exitX=0;exitY=0.75;exitDx=0;exitDy=0;" edge="1" parent="1" source="16" target="20">
                    <mxGeometry relative="1" as="geometry"/>
                </mxCell>
                <mxCell id="307" style="edgeStyle=none;html=1;exitX=0.25;exitY=1;exitDx=0;exitDy=0;entryX=0;entryY=0;entryDx=0;entryDy=0;" edge="1" parent="1" source="16" target="22">
                    <mxGeometry relative="1" as="geometry"/>
                </mxCell>
                <mxCell id="308" style="edgeStyle=none;html=1;exitX=1;exitY=1;exitDx=0;exitDy=0;entryX=0;entryY=0;entryDx=0;entryDy=0;" edge="1" parent="1" source="16" target="17">
                    <mxGeometry relative="1" as="geometry"/>
                </mxCell>
                <mxCell id="16" value="Telefono" style="rounded=0;whiteSpace=wrap;html=1;" parent="1" vertex="1">
                    <mxGeometry x="90" y="1270" width="120" height="60" as="geometry"/>
                </mxCell>
                <mxCell id="17" value="IdUsuario" style="ellipse;whiteSpace=wrap;html=1;" parent="1" vertex="1">
                    <mxGeometry x="200" y="1367.5" width="120" height="80" as="geometry"/>
                </mxCell>
                <mxCell id="309" style="edgeStyle=none;html=1;exitX=0.5;exitY=1;exitDx=0;exitDy=0;entryX=0.5;entryY=0;entryDx=0;entryDy=0;" edge="1" parent="1" source="18" target="16">
                    <mxGeometry relative="1" as="geometry"/>
                </mxCell>
                <mxCell id="18" value="" style="rhombus;whiteSpace=wrap;html=1;" parent="1" vertex="1">
                    <mxGeometry x="110" y="1150" width="80" height="80" as="geometry"/>
                </mxCell>
                <mxCell id="20" value="IdTelefono" style="ellipse;whiteSpace=wrap;html=1;" parent="1" vertex="1">
                    <mxGeometry x="-50" y="1330" width="120" height="80" as="geometry"/>
                </mxCell>
                <mxCell id="22" value="NumeroTelefonico" style="ellipse;whiteSpace=wrap;html=1;" parent="1" vertex="1">
                    <mxGeometry x="70" y="1367.5" width="120" height="80" as="geometry"/>
                </mxCell>
                <mxCell id="264" style="edgeStyle=none;html=1;exitX=0;exitY=0.75;exitDx=0;exitDy=0;" edge="1" parent="1" source="23" target="28">
                    <mxGeometry relative="1" as="geometry"/>
                </mxCell>
                <mxCell id="265" style="edgeStyle=none;html=1;exitX=0;exitY=1;exitDx=0;exitDy=0;entryX=1;entryY=0;entryDx=0;entryDy=0;" edge="1" parent="1" source="23" target="27">
                    <mxGeometry relative="1" as="geometry"/>
                </mxCell>
                <mxCell id="268" style="edgeStyle=none;html=1;exitX=0.75;exitY=1;exitDx=0;exitDy=0;entryX=0;entryY=0;entryDx=0;entryDy=0;" edge="1" parent="1" source="23" target="26">
                    <mxGeometry relative="1" as="geometry"/>
                </mxCell>
                <mxCell id="269" style="edgeStyle=none;html=1;exitX=1;exitY=1;exitDx=0;exitDy=0;entryX=0;entryY=0.5;entryDx=0;entryDy=0;" edge="1" parent="1" source="23" target="161">
                    <mxGeometry relative="1" as="geometry"/>
                </mxCell>
                <mxCell id="352" style="edgeStyle=none;html=1;exitX=0;exitY=0;exitDx=0;exitDy=0;entryX=1;entryY=0.5;entryDx=0;entryDy=0;" edge="1" parent="1" source="23" target="351">
                    <mxGeometry relative="1" as="geometry"/>
                </mxCell>
                <mxCell id="23" value="Direccion" style="rounded=0;whiteSpace=wrap;html=1;" parent="1" vertex="1">
                    <mxGeometry x="62.5" y="1700" width="120" height="60" as="geometry"/>
                </mxCell>
                <mxCell id="24" value="Barrio" style="ellipse;whiteSpace=wrap;html=1;" parent="1" vertex="1">
                    <mxGeometry x="-162.5" y="1860" width="120" height="80" as="geometry"/>
                </mxCell>
                <mxCell id="270" style="edgeStyle=none;html=1;exitX=1;exitY=0.5;exitDx=0;exitDy=0;entryX=0;entryY=0.5;entryDx=0;entryDy=0;" edge="1" parent="1" source="25" target="160">
                    <mxGeometry relative="1" as="geometry"/>
                </mxCell>
                <mxCell id="271" style="edgeStyle=none;html=1;exitX=0.5;exitY=1;exitDx=0;exitDy=0;" edge="1" parent="1" source="25" target="23">
                    <mxGeometry relative="1" as="geometry"/>
                </mxCell>
                <mxCell id="25" value="" style="rhombus;whiteSpace=wrap;html=1;" parent="1" vertex="1">
                    <mxGeometry x="82.5" y="1580" width="80" height="80" as="geometry"/>
                </mxCell>
                <mxCell id="26" value="SeÃ±asExactas" style="ellipse;whiteSpace=wrap;html=1;" parent="1" vertex="1">
                    <mxGeometry x="-2.5" y="1830" width="120" height="80" as="geometry"/>
                </mxCell>
                <mxCell id="27" value="Canton" style="ellipse;whiteSpace=wrap;html=1;" parent="1" vertex="1">
                    <mxGeometry x="-295" y="1765" width="120" height="80" as="geometry"/>
                </mxCell>
                <mxCell id="28" value="Provincia" style="ellipse;whiteSpace=wrap;html=1;" parent="1" vertex="1">
                    <mxGeometry x="-225" y="1680" width="120" height="80" as="geometry"/>
                </mxCell>
                <mxCell id="29" value="Distrito" style="ellipse;whiteSpace=wrap;html=1;" parent="1" vertex="1">
                    <mxGeometry x="-330" y="1860" width="120" height="80" as="geometry"/>
                </mxCell>
                <mxCell id="385" style="edgeStyle=none;html=1;exitX=0;exitY=0.25;exitDx=0;exitDy=0;entryX=1;entryY=0.5;entryDx=0;entryDy=0;" edge="1" parent="1" source="30" target="164">
                    <mxGeometry relative="1" as="geometry"/>
                </mxCell>
                <mxCell id="390" style="edgeStyle=none;html=1;exitX=0;exitY=1;exitDx=0;exitDy=0;entryX=0.5;entryY=0;entryDx=0;entryDy=0;" edge="1" parent="1" source="30" target="35">
                    <mxGeometry relative="1" as="geometry"/>
                </mxCell>
                <mxCell id="391" style="edgeStyle=none;html=1;exitX=0.5;exitY=0;exitDx=0;exitDy=0;entryX=1;entryY=1;entryDx=0;entryDy=0;" edge="1" parent="1" source="30" target="389">
                    <mxGeometry relative="1" as="geometry"/>
                </mxCell>
                <mxCell id="392" style="edgeStyle=none;html=1;exitX=0.75;exitY=1;exitDx=0;exitDy=0;entryX=0.5;entryY=0;entryDx=0;entryDy=0;" edge="1" parent="1" source="30" target="146">
                    <mxGeometry relative="1" as="geometry"/>
                </mxCell>
                <mxCell id="30" value="RedesSocialesEmpresa" style="rounded=0;whiteSpace=wrap;html=1;" parent="1" vertex="1">
                    <mxGeometry x="-155" y="445" width="150" height="60" as="geometry"/>
                </mxCell>
                <mxCell id="347" style="edgeStyle=none;html=1;exitX=0;exitY=0.5;exitDx=0;exitDy=0;entryX=1;entryY=0;entryDx=0;entryDy=0;" edge="1" parent="1" source="32" target="58">
                    <mxGeometry relative="1" as="geometry"/>
                </mxCell>
                <mxCell id="32" value="" style="rhombus;whiteSpace=wrap;html=1;" parent="1" vertex="1">
                    <mxGeometry x="1420" y="305" width="80" height="80" as="geometry"/>
                </mxCell>
                <mxCell id="35" value="IdRedSocial" style="ellipse;whiteSpace=wrap;html=1;" parent="1" vertex="1">
                    <mxGeometry x="-255" y="535" width="120" height="80" as="geometry"/>
                </mxCell>
                <mxCell id="315" style="edgeStyle=none;html=1;exitX=0;exitY=0.75;exitDx=0;exitDy=0;entryX=1;entryY=0;entryDx=0;entryDy=0;" edge="1" parent="1" source="37" target="41">
                    <mxGeometry relative="1" as="geometry"/>
                </mxCell>
                <mxCell id="316" style="edgeStyle=none;html=1;exitX=0;exitY=1;exitDx=0;exitDy=0;entryX=1;entryY=0;entryDx=0;entryDy=0;" edge="1" parent="1" source="37" target="43">
                    <mxGeometry relative="1" as="geometry"/>
                </mxCell>
                <mxCell id="317" style="edgeStyle=none;html=1;exitX=0.25;exitY=1;exitDx=0;exitDy=0;entryX=0;entryY=0;entryDx=0;entryDy=0;" edge="1" parent="1" source="37" target="38">
                    <mxGeometry relative="1" as="geometry"/>
                </mxCell>
                <mxCell id="318" style="edgeStyle=none;html=1;exitX=0.75;exitY=1;exitDx=0;exitDy=0;entryX=0;entryY=0;entryDx=0;entryDy=0;" edge="1" parent="1" source="37" target="40">
                    <mxGeometry relative="1" as="geometry"/>
                </mxCell>
                <mxCell id="319" style="edgeStyle=none;html=1;exitX=1;exitY=1;exitDx=0;exitDy=0;" edge="1" parent="1" source="37" target="148">
                    <mxGeometry relative="1" as="geometry"/>
                </mxCell>
                <mxCell id="411" style="edgeStyle=none;html=1;exitX=0;exitY=0.5;exitDx=0;exitDy=0;entryX=1;entryY=0.5;entryDx=0;entryDy=0;" edge="1" parent="1" source="37" target="368">
                    <mxGeometry relative="1" as="geometry"/>
                </mxCell>
                <mxCell id="412" style="edgeStyle=none;html=1;exitX=0;exitY=0.25;exitDx=0;exitDy=0;entryX=1;entryY=0.5;entryDx=0;entryDy=0;" edge="1" parent="1" source="37" target="42">
                    <mxGeometry relative="1" as="geometry"/>
                </mxCell>
                <mxCell id="37" value="Reservacion" style="rounded=0;whiteSpace=wrap;html=1;" parent="1" vertex="1">
                    <mxGeometry x="1095" y="855" width="120" height="60" as="geometry"/>
                </mxCell>
                <mxCell id="38" value="CantidadPersonas" style="ellipse;whiteSpace=wrap;html=1;" parent="1" vertex="1">
                    <mxGeometry x="1085" y="1070" width="120" height="80" as="geometry"/>
                </mxCell>
                <mxCell id="409" style="edgeStyle=none;html=1;exitX=1;exitY=0.5;exitDx=0;exitDy=0;entryX=0.25;entryY=0;entryDx=0;entryDy=0;" edge="1" parent="1" source="39" target="37">
                    <mxGeometry relative="1" as="geometry"/>
                </mxCell>
                <mxCell id="410" style="edgeStyle=none;html=1;exitX=0.5;exitY=0;exitDx=0;exitDy=0;entryX=0.25;entryY=1;entryDx=0;entryDy=0;" edge="1" parent="1" source="39" target="65">
                    <mxGeometry relative="1" as="geometry"/>
                </mxCell>
                <mxCell id="39" value="" style="rhombus;whiteSpace=wrap;html=1;" parent="1" vertex="1">
                    <mxGeometry x="955" y="615" width="80" height="80" as="geometry"/>
                </mxCell>
                <mxCell id="40" value="Vehiculo" style="ellipse;whiteSpace=wrap;html=1;" parent="1" vertex="1">
                    <mxGeometry x="1205" y="1030" width="120" height="80" as="geometry"/>
                </mxCell>
                <mxCell id="41" value="IdCliente" style="ellipse;whiteSpace=wrap;html=1;" parent="1" vertex="1">
                    <mxGeometry x="935" y="950" width="120" height="80" as="geometry"/>
                </mxCell>
                <mxCell id="42" value="IdReservacion" style="ellipse;whiteSpace=wrap;html=1;" parent="1" vertex="1">
                    <mxGeometry x="930" y="830" width="120" height="80" as="geometry"/>
                </mxCell>
                <mxCell id="43" value="FechaHoraIngreso" style="ellipse;whiteSpace=wrap;html=1;" parent="1" vertex="1">
                    <mxGeometry x="945" y="1050" width="120" height="80" as="geometry"/>
                </mxCell>
                <mxCell id="310" style="edgeStyle=none;html=1;exitX=0;exitY=0.5;exitDx=0;exitDy=0;entryX=1;entryY=0.5;entryDx=0;entryDy=0;" edge="1" parent="1" source="44" target="48">
                    <mxGeometry relative="1" as="geometry"/>
                </mxCell>
                <mxCell id="365" style="edgeStyle=none;html=1;exitX=0.75;exitY=1;exitDx=0;exitDy=0;entryX=0;entryY=0;entryDx=0;entryDy=0;" edge="1" parent="1" source="44" target="49">
                    <mxGeometry relative="1" as="geometry"/>
                </mxCell>
                <mxCell id="44" value="Facturacion" style="rounded=0;whiteSpace=wrap;html=1;" parent="1" vertex="1">
                    <mxGeometry x="775" y="1050" width="120" height="60" as="geometry"/>
                </mxCell>
                <mxCell id="313" style="edgeStyle=none;html=1;exitX=0.5;exitY=1;exitDx=0;exitDy=0;entryX=0.5;entryY=0;entryDx=0;entryDy=0;" edge="1" parent="1" source="46" target="44">
                    <mxGeometry relative="1" as="geometry"/>
                </mxCell>
                <mxCell id="46" value="" style="rhombus;whiteSpace=wrap;html=1;" parent="1" vertex="1">
                    <mxGeometry x="730" y="910" width="80" height="80" as="geometry"/>
                </mxCell>
                <mxCell id="48" value="IdReserva" style="ellipse;whiteSpace=wrap;html=1;" parent="1" vertex="1">
                    <mxGeometry x="625" y="1052.5" width="120" height="80" as="geometry"/>
                </mxCell>
                <mxCell id="49" value="IdFacturacion" style="ellipse;whiteSpace=wrap;html=1;" parent="1" vertex="1">
                    <mxGeometry x="795" y="1160" width="120" height="80" as="geometry"/>
                </mxCell>
                <mxCell id="50" value="MetodoPago" style="ellipse;whiteSpace=wrap;html=1;" parent="1" vertex="1">
                    <mxGeometry x="655" y="1160" width="120" height="80" as="geometry"/>
                </mxCell>
                <mxCell id="280" style="edgeStyle=none;html=1;exitX=1;exitY=0.5;exitDx=0;exitDy=0;entryX=0;entryY=0.5;entryDx=0;entryDy=0;" edge="1" parent="1" source="51" target="53">
                    <mxGeometry relative="1" as="geometry"/>
                </mxCell>
                <mxCell id="51" value="ListaDeServicios" style="rounded=0;whiteSpace=wrap;html=1;" parent="1" vertex="1">
                    <mxGeometry x="-410" y="237.5" width="140" height="60" as="geometry"/>
                </mxCell>
                <mxCell id="53" value="" style="rhombus;whiteSpace=wrap;html=1;" parent="1" vertex="1">
                    <mxGeometry x="-200" y="210" width="80" height="80" as="geometry"/>
                </mxCell>
                <mxCell id="55" value="IdEmpresa" style="ellipse;whiteSpace=wrap;html=1;" parent="1" vertex="1">
                    <mxGeometry x="-495" y="342.5" width="120" height="80" as="geometry"/>
                </mxCell>
                <mxCell id="57" value="IdServicio" style="ellipse;whiteSpace=wrap;html=1;" parent="1" vertex="1">
                    <mxGeometry x="-355" y="342.5" width="120" height="80" as="geometry"/>
                </mxCell>
                <mxCell id="338" style="edgeStyle=none;html=1;exitX=0;exitY=0;exitDx=0;exitDy=0;entryX=0.5;entryY=1;entryDx=0;entryDy=0;" edge="1" parent="1" source="58" target="63">
                    <mxGeometry relative="1" as="geometry"/>
                </mxCell>
                <mxCell id="339" style="edgeStyle=none;html=1;exitX=0;exitY=0.25;exitDx=0;exitDy=0;entryX=1;entryY=0.5;entryDx=0;entryDy=0;" edge="1" parent="1" source="58" target="62">
                    <mxGeometry relative="1" as="geometry"/>
                </mxCell>
                <mxCell id="340" style="edgeStyle=none;html=1;exitX=0;exitY=0.5;exitDx=0;exitDy=0;entryX=1;entryY=0;entryDx=0;entryDy=0;" edge="1" parent="1" source="58" target="64">
                    <mxGeometry relative="1" as="geometry"/>
                </mxCell>
                <mxCell id="343" style="edgeStyle=none;html=1;exitX=0.75;exitY=1;exitDx=0;exitDy=0;entryX=0;entryY=0;entryDx=0;entryDy=0;" edge="1" parent="1" source="58" target="61">
                    <mxGeometry relative="1" as="geometry"/>
                </mxCell>
                <mxCell id="345" style="edgeStyle=none;html=1;exitX=1;exitY=0.5;exitDx=0;exitDy=0;entryX=0;entryY=0.5;entryDx=0;entryDy=0;" edge="1" parent="1" source="58" target="142">
                    <mxGeometry relative="1" as="geometry"/>
                </mxCell>
                <mxCell id="375" style="edgeStyle=none;html=1;exitX=0.25;exitY=1;exitDx=0;exitDy=0;entryX=0.5;entryY=0;entryDx=0;entryDy=0;" edge="1" parent="1" source="58" target="357">
                    <mxGeometry relative="1" as="geometry"/>
                </mxCell>
                <mxCell id="405" style="edgeStyle=none;html=1;exitX=0.75;exitY=0;exitDx=0;exitDy=0;entryX=1;entryY=0.5;entryDx=0;entryDy=0;" edge="1" parent="1" source="58" target="154">
                    <mxGeometry relative="1" as="geometry"/>
                </mxCell>
                <mxCell id="58" value="TipoHabitacion" style="rounded=0;whiteSpace=wrap;html=1;" parent="1" vertex="1">
                    <mxGeometry x="1175" y="385" width="120" height="60" as="geometry"/>
                </mxCell>
                <mxCell id="61" value="Precio" style="ellipse;whiteSpace=wrap;html=1;" parent="1" vertex="1">
                    <mxGeometry x="1270" y="495" width="120" height="80" as="geometry"/>
                </mxCell>
                <mxCell id="62" value="Nombre" style="ellipse;whiteSpace=wrap;html=1;" parent="1" vertex="1">
                    <mxGeometry x="945" y="385" width="120" height="80" as="geometry"/>
                </mxCell>
                <mxCell id="63" value="Fotos" style="ellipse;whiteSpace=wrap;html=1;" parent="1" vertex="1">
                    <mxGeometry x="1025" y="280" width="120" height="80" as="geometry"/>
                </mxCell>
                <mxCell id="64" value="Descripcion" style="ellipse;whiteSpace=wrap;html=1;" parent="1" vertex="1">
                    <mxGeometry x="1015" y="475" width="120" height="80" as="geometry"/>
                </mxCell>
                <mxCell id="334" style="edgeStyle=none;html=1;exitX=0;exitY=0.25;exitDx=0;exitDy=0;entryX=1;entryY=0.5;entryDx=0;entryDy=0;" edge="1" parent="1" source="65" target="69">
                    <mxGeometry relative="1" as="geometry"/>
                </mxCell>
                <mxCell id="335" style="edgeStyle=none;html=1;exitX=0;exitY=0.5;exitDx=0;exitDy=0;entryX=1;entryY=0;entryDx=0;entryDy=0;" edge="1" parent="1" source="65" target="71">
                    <mxGeometry relative="1" as="geometry"/>
                </mxCell>
                <mxCell id="408" style="edgeStyle=none;html=1;exitX=0;exitY=1;exitDx=0;exitDy=0;entryX=1;entryY=0;entryDx=0;entryDy=0;" edge="1" parent="1" source="65" target="66">
                    <mxGeometry relative="1" as="geometry"/>
                </mxCell>
                <mxCell id="65" value="DatosHabitacion" style="rounded=0;whiteSpace=wrap;html=1;" parent="1" vertex="1">
                    <mxGeometry x="825" y="295" width="120" height="60" as="geometry"/>
                </mxCell>
                <mxCell id="66" value="IdTipoHabitacion" style="ellipse;whiteSpace=wrap;html=1;" parent="1" vertex="1">
                    <mxGeometry x="640" y="390" width="120" height="80" as="geometry"/>
                </mxCell>
                <mxCell id="354" style="edgeStyle=none;html=1;exitX=1;exitY=0.5;exitDx=0;exitDy=0;entryX=0.5;entryY=0;entryDx=0;entryDy=0;" edge="1" parent="1" source="67" target="58">
                    <mxGeometry relative="1" as="geometry"/>
                </mxCell>
                <mxCell id="363" style="edgeStyle=none;html=1;exitX=0;exitY=0.5;exitDx=0;exitDy=0;entryX=1;entryY=0;entryDx=0;entryDy=0;" edge="1" parent="1" source="67" target="65">
                    <mxGeometry relative="1" as="geometry"/>
                </mxCell>
                <mxCell id="67" value="" style="rhombus;whiteSpace=wrap;html=1;" parent="1" vertex="1">
                    <mxGeometry x="1080" y="175" width="80" height="80" as="geometry"/>
                </mxCell>
                <mxCell id="69" value="IdDatosHabitacion" style="ellipse;whiteSpace=wrap;html=1;" parent="1" vertex="1">
                    <mxGeometry x="665" y="215" width="120" height="80" as="geometry"/>
                </mxCell>
                <mxCell id="71" value="&lt;span style=&quot;color: rgb(0, 0, 0);&quot;&gt;Numero&lt;/span&gt;" style="ellipse;whiteSpace=wrap;html=1;" parent="1" vertex="1">
                    <mxGeometry x="630" y="300" width="120" height="80" as="geometry"/>
                </mxCell>
                <mxCell id="398" style="edgeStyle=none;html=1;exitX=0.25;exitY=0;exitDx=0;exitDy=0;entryX=0.5;entryY=1;entryDx=0;entryDy=0;" edge="1" parent="1" source="72" target="78">
                    <mxGeometry relative="1" as="geometry"/>
                </mxCell>
                <mxCell id="399" style="edgeStyle=none;html=1;exitX=0.75;exitY=0;exitDx=0;exitDy=0;entryX=0.5;entryY=1;entryDx=0;entryDy=0;" edge="1" parent="1" source="72" target="77">
                    <mxGeometry relative="1" as="geometry"/>
                </mxCell>
                <mxCell id="400" style="edgeStyle=none;html=1;exitX=0;exitY=1;exitDx=0;exitDy=0;entryX=0.5;entryY=0;entryDx=0;entryDy=0;" edge="1" parent="1" source="72" target="74">
                    <mxGeometry relative="1" as="geometry"/>
                </mxCell>
                <mxCell id="404" style="edgeStyle=none;html=1;exitX=1;exitY=1;exitDx=0;exitDy=0;entryX=0;entryY=0.5;entryDx=0;entryDy=0;" edge="1" parent="1" source="72" target="403">
                    <mxGeometry relative="1" as="geometry"/>
                </mxCell>
                <mxCell id="72" value="TipoHabitacionEmpresa" style="rounded=0;whiteSpace=wrap;html=1;" parent="1" vertex="1">
                    <mxGeometry x="380" y="-240" width="140" height="60" as="geometry"/>
                </mxCell>
                <mxCell id="401" style="edgeStyle=none;html=1;exitX=0.5;exitY=1;exitDx=0;exitDy=0;entryX=0.5;entryY=0;entryDx=0;entryDy=0;" edge="1" parent="1" source="74" target="2">
                    <mxGeometry relative="1" as="geometry"/>
                </mxCell>
                <mxCell id="402" style="edgeStyle=none;html=1;exitX=0;exitY=0.5;exitDx=0;exitDy=0;entryX=1;entryY=1;entryDx=0;entryDy=0;" edge="1" parent="1" source="74" target="75">
                    <mxGeometry relative="1" as="geometry"/>
                </mxCell>
                <mxCell id="74" value="" style="rhombus;whiteSpace=wrap;html=1;" parent="1" vertex="1">
                    <mxGeometry x="310" y="-140" width="80" height="80" as="geometry"/>
                </mxCell>
                <mxCell id="75" value="" style="ellipse;whiteSpace=wrap;html=1;" parent="1" vertex="1">
                    <mxGeometry x="170" y="-190" width="120" height="80" as="geometry"/>
                </mxCell>
                <mxCell id="76" value="ReferenciaGPS" style="ellipse;whiteSpace=wrap;html=1;" parent="1" vertex="1">
                    <mxGeometry x="20" y="-70" width="120" height="80" as="geometry"/>
                </mxCell>
                <mxCell id="77" value="IdEmpresa" style="ellipse;whiteSpace=wrap;html=1;" parent="1" vertex="1">
                    <mxGeometry x="475" y="-360" width="120" height="80" as="geometry"/>
                </mxCell>
                <mxCell id="78" value="IdTipoHabitacion" style="ellipse;whiteSpace=wrap;html=1;" parent="1" vertex="1">
                    <mxGeometry x="320" y="-350" width="120" height="80" as="geometry"/>
                </mxCell>
                <mxCell id="79" value="" style="rounded=0;whiteSpace=wrap;html=1;" parent="1" vertex="1">
                    <mxGeometry x="2620" y="455" width="120" height="60" as="geometry"/>
                </mxCell>
                <mxCell id="80" value="" style="ellipse;whiteSpace=wrap;html=1;" parent="1" vertex="1">
                    <mxGeometry x="2600" y="565" width="120" height="80" as="geometry"/>
                </mxCell>
                <mxCell id="81" value="" style="rhombus;whiteSpace=wrap;html=1;" parent="1" vertex="1">
                    <mxGeometry x="2780" y="435" width="80" height="80" as="geometry"/>
                </mxCell>
                <mxCell id="82" value="" style="ellipse;whiteSpace=wrap;html=1;" parent="1" vertex="1">
                    <mxGeometry x="2740" y="545" width="120" height="80" as="geometry"/>
                </mxCell>
                <mxCell id="83" value="" style="ellipse;whiteSpace=wrap;html=1;" parent="1" vertex="1">
                    <mxGeometry x="2450" y="445" width="120" height="80" as="geometry"/>
                </mxCell>
                <mxCell id="84" value="" style="ellipse;whiteSpace=wrap;html=1;" parent="1" vertex="1">
                    <mxGeometry x="2580" y="335" width="120" height="80" as="geometry"/>
                </mxCell>
                <mxCell id="85" value="" style="ellipse;whiteSpace=wrap;html=1;" parent="1" vertex="1">
                    <mxGeometry x="2460" y="545" width="120" height="80" as="geometry"/>
                </mxCell>
                <mxCell id="286" style="edgeStyle=none;html=1;exitX=0;exitY=0;exitDx=0;exitDy=0;entryX=1;entryY=1;entryDx=0;entryDy=0;" edge="1" parent="1" source="100" target="105">
                    <mxGeometry relative="1" as="geometry"/>
                </mxCell>
                <mxCell id="287" style="edgeStyle=none;html=1;exitX=0;exitY=0.25;exitDx=0;exitDy=0;entryX=1;entryY=0.5;entryDx=0;entryDy=0;" edge="1" parent="1" source="100" target="112">
                    <mxGeometry relative="1" as="geometry"/>
                </mxCell>
                <mxCell id="289" style="edgeStyle=none;html=1;exitX=0;exitY=0.5;exitDx=0;exitDy=0;entryX=1;entryY=0;entryDx=0;entryDy=0;" edge="1" parent="1" source="100" target="104">
                    <mxGeometry relative="1" as="geometry"/>
                </mxCell>
                <mxCell id="290" style="edgeStyle=none;html=1;exitX=0;exitY=0.75;exitDx=0;exitDy=0;entryX=1;entryY=0;entryDx=0;entryDy=0;" edge="1" parent="1" source="100" target="106">
                    <mxGeometry relative="1" as="geometry"/>
                </mxCell>
                <mxCell id="291" style="edgeStyle=none;html=1;exitX=0;exitY=1;exitDx=0;exitDy=0;entryX=0.5;entryY=0;entryDx=0;entryDy=0;" edge="1" parent="1" source="100" target="101">
                    <mxGeometry relative="1" as="geometry"/>
                </mxCell>
                <mxCell id="292" style="edgeStyle=none;html=1;exitX=0.25;exitY=1;exitDx=0;exitDy=0;entryX=0;entryY=0;entryDx=0;entryDy=0;" edge="1" parent="1" source="100" target="103">
                    <mxGeometry relative="1" as="geometry"/>
                </mxCell>
                <mxCell id="293" style="edgeStyle=none;html=1;exitX=1;exitY=0;exitDx=0;exitDy=0;entryX=0.5;entryY=1;entryDx=0;entryDy=0;" edge="1" parent="1" source="100" target="102">
                    <mxGeometry relative="1" as="geometry"/>
                </mxCell>
                <mxCell id="415" style="edgeStyle=none;html=1;exitX=0;exitY=0.5;exitDx=0;exitDy=0;entryX=1;entryY=1;entryDx=0;entryDy=0;" edge="1" parent="1" source="100" target="116">
                    <mxGeometry relative="1" as="geometry"/>
                </mxCell>
                <mxCell id="100" value="Cliente" style="rounded=0;whiteSpace=wrap;html=1;" parent="1" vertex="1">
                    <mxGeometry x="-367.5" y="787" width="120" height="60" as="geometry"/>
                </mxCell>
                <mxCell id="101" value="TipoIdentificacion" style="ellipse;whiteSpace=wrap;html=1;" parent="1" vertex="1">
                    <mxGeometry x="-400" y="1030" width="120" height="80" as="geometry"/>
                </mxCell>
                <mxCell id="102" value="" style="rhombus;whiteSpace=wrap;html=1;" parent="1" vertex="1">
                    <mxGeometry x="20" y="775" width="80" height="80" as="geometry"/>
                </mxCell>
                <mxCell id="103" value="Cedula" style="ellipse;whiteSpace=wrap;html=1;" parent="1" vertex="1">
                    <mxGeometry x="-320" y="882" width="120" height="80" as="geometry"/>
                </mxCell>
                <mxCell id="104" value="NombreCompleto" style="ellipse;whiteSpace=wrap;html=1;" parent="1" vertex="1">
                    <mxGeometry x="-615" y="930" width="120" height="80" as="geometry"/>
                </mxCell>
                <mxCell id="105" value="IdCliente" style="ellipse;whiteSpace=wrap;html=1;" parent="1" vertex="1">
                    <mxGeometry x="-502.5" y="707" width="120" height="80" as="geometry"/>
                </mxCell>
                <mxCell id="106" value="FechaNacimiento" style="ellipse;whiteSpace=wrap;html=1;" parent="1" vertex="1">
                    <mxGeometry x="-530" y="990" width="120" height="80" as="geometry"/>
                </mxCell>
                <mxCell id="255" style="edgeStyle=none;html=1;exitX=0;exitY=0.5;exitDx=0;exitDy=0;entryX=1;entryY=0.5;entryDx=0;entryDy=0;" parent="1" source="107" target="111" edge="1">
                    <mxGeometry relative="1" as="geometry"/>
                </mxCell>
                <mxCell id="259" style="edgeStyle=none;html=1;exitX=0.25;exitY=1;exitDx=0;exitDy=0;entryX=0.5;entryY=0;entryDx=0;entryDy=0;" parent="1" source="107" target="109" edge="1">
                    <mxGeometry relative="1" as="geometry"/>
                </mxCell>
                <mxCell id="260" style="edgeStyle=none;html=1;exitX=0.75;exitY=1;exitDx=0;exitDy=0;entryX=0.5;entryY=0;entryDx=0;entryDy=0;" parent="1" source="107" target="238" edge="1">
                    <mxGeometry relative="1" as="geometry"/>
                </mxCell>
                <mxCell id="107" value="EmpresaRecreacion" style="rounded=0;whiteSpace=wrap;html=1;" parent="1" vertex="1">
                    <mxGeometry x="700" y="1512.5" width="120" height="60" as="geometry"/>
                </mxCell>
                <mxCell id="108" value="CorreoElectronico" style="ellipse;whiteSpace=wrap;html=1;" parent="1" vertex="1">
                    <mxGeometry x="850" y="1522.5" width="120" height="80" as="geometry"/>
                </mxCell>
                <mxCell id="261" style="edgeStyle=none;html=1;exitX=0;exitY=1;exitDx=0;exitDy=0;entryX=1;entryY=0;entryDx=0;entryDy=0;" parent="1" source="109" target="237" edge="1">
                    <mxGeometry relative="1" as="geometry"/>
                </mxCell>
                <mxCell id="109" value="" style="rhombus;whiteSpace=wrap;html=1;" parent="1" vertex="1">
                    <mxGeometry x="670" y="1752.5" width="80" height="80" as="geometry"/>
                </mxCell>
                <mxCell id="110" value="PersonaAContactar" style="ellipse;whiteSpace=wrap;html=1;" parent="1" vertex="1">
                    <mxGeometry x="820" y="1612.5" width="130" height="80" as="geometry"/>
                </mxCell>
                <mxCell id="111" value="NombreEmpresa" style="ellipse;whiteSpace=wrap;html=1;" parent="1" vertex="1">
                    <mxGeometry x="530" y="1532.5" width="120" height="80" as="geometry"/>
                </mxCell>
                <mxCell id="112" value="PaisDeResidencia" style="ellipse;whiteSpace=wrap;html=1;" parent="1" vertex="1">
                    <mxGeometry x="-630" y="745" width="120" height="80" as="geometry"/>
                </mxCell>
                <mxCell id="113" value="CedulaJuridica" style="ellipse;whiteSpace=wrap;html=1;" parent="1" vertex="1">
                    <mxGeometry x="580" y="1622.5" width="120" height="80" as="geometry"/>
                </mxCell>
                <mxCell id="294" style="edgeStyle=none;html=1;exitX=0.25;exitY=1;exitDx=0;exitDy=0;entryX=0.5;entryY=0;entryDx=0;entryDy=0;" edge="1" parent="1" source="114" target="118">
                    <mxGeometry relative="1" as="geometry"/>
                </mxCell>
                <mxCell id="295" style="edgeStyle=none;html=1;exitX=0.75;exitY=1;exitDx=0;exitDy=0;entryX=0;entryY=0;entryDx=0;entryDy=0;" edge="1" parent="1" source="114" target="119">
                    <mxGeometry relative="1" as="geometry"/>
                </mxCell>
                <mxCell id="114" value="Paises" style="rounded=0;whiteSpace=wrap;html=1;" parent="1" vertex="1">
                    <mxGeometry x="-840" y="930" width="120" height="60" as="geometry"/>
                </mxCell>
                <mxCell id="296" style="edgeStyle=none;html=1;exitX=0.5;exitY=1;exitDx=0;exitDy=0;entryX=0.5;entryY=0;entryDx=0;entryDy=0;" edge="1" parent="1" source="116" target="114">
                    <mxGeometry relative="1" as="geometry"/>
                </mxCell>
                <mxCell id="116" value="Pais-Cliente" style="rhombus;whiteSpace=wrap;html=1;" parent="1" vertex="1">
                    <mxGeometry x="-820" y="800" width="80" height="80" as="geometry"/>
                </mxCell>
                <mxCell id="118" value="NombrePais" style="ellipse;whiteSpace=wrap;html=1;" parent="1" vertex="1">
                    <mxGeometry x="-910" y="1025" width="120" height="80" as="geometry"/>
                </mxCell>
                <mxCell id="119" value="IdPais" style="ellipse;whiteSpace=wrap;html=1;" parent="1" vertex="1">
                    <mxGeometry x="-760" y="1020" width="120" height="80" as="geometry"/>
                </mxCell>
                <mxCell id="121" value="" style="rounded=0;whiteSpace=wrap;html=1;" parent="1" vertex="1">
                    <mxGeometry x="1350" y="2620" width="120" height="60" as="geometry"/>
                </mxCell>
                <mxCell id="122" value="" style="ellipse;whiteSpace=wrap;html=1;" parent="1" vertex="1">
                    <mxGeometry x="1330" y="2740" width="120" height="80" as="geometry"/>
                </mxCell>
                <mxCell id="123" value="" style="rhombus;whiteSpace=wrap;html=1;" parent="1" vertex="1">
                    <mxGeometry x="1510" y="2610" width="120" height="120" as="geometry"/>
                </mxCell>
                <mxCell id="124" value="" style="ellipse;whiteSpace=wrap;html=1;" parent="1" vertex="1">
                    <mxGeometry x="1470" y="2720" width="120" height="80" as="geometry"/>
                </mxCell>
                <mxCell id="125" value="" style="ellipse;whiteSpace=wrap;html=1;" parent="1" vertex="1">
                    <mxGeometry x="1180" y="2620" width="120" height="80" as="geometry"/>
                </mxCell>
                <mxCell id="126" value="" style="ellipse;whiteSpace=wrap;html=1;" parent="1" vertex="1">
                    <mxGeometry x="1310" y="2510" width="120" height="80" as="geometry"/>
                </mxCell>
                <mxCell id="127" value="" style="ellipse;whiteSpace=wrap;html=1;" parent="1" vertex="1">
                    <mxGeometry x="1190" y="2720" width="120" height="80" as="geometry"/>
                </mxCell>
                <mxCell id="142" value="IdTipoHabitacion" style="ellipse;whiteSpace=wrap;html=1;" parent="1" vertex="1">
                    <mxGeometry x="1345" y="405" width="120" height="80" as="geometry"/>
                </mxCell>
                <mxCell id="146" value="Enlace" style="ellipse;whiteSpace=wrap;html=1;" parent="1" vertex="1">
                    <mxGeometry x="-125" y="530" width="120" height="80" as="geometry"/>
                </mxCell>
                <mxCell id="148" value="IdHabitacion" style="ellipse;whiteSpace=wrap;html=1;" parent="1" vertex="1">
                    <mxGeometry x="1235" y="940" width="120" height="80" as="geometry"/>
                </mxCell>
                <mxCell id="149" value="" style="shape=image;verticalLabelPosition=bottom;labelBackgroundColor=default;verticalAlign=top;aspect=fixed;imageAspect=0;image=data:image/png,iVBORw0KGgoAAAANSUhEUgAAAsMAAADWCAYAAAA0CI9DAAAAAXNSR0IArs4c6QAAAARnQU1BAACxjwv8YQUAAAAJcEhZcwAADsMAAA7DAcdvqGQAAEGSSURBVHhe7Z3BiyzJda/PvIVnNYaxBvHkamhatuFB2RhjmbpwN+02NlrUrhcX425t3s5FY9R4MfUX1F2YFqbpt9PGdY2ZRe9qISxc7s2FW1hCPKwCgWw1DV2yn5iRwLMab+ZFREZWRUZGZpyIjKyq7vx9UDN9qzJPnHPiROTJyJOZ783n8y8JAAAAAACADvI/9P8BAAAAAADoHEiGAQAAAABAZ0EyDAAAAAAAOguSYQAAAAAA0FmQDAMAAAAAgM6CZBgAAAAAAHQWJMMANOZz+vv/8xP69vc/1/8GAAAAwFMByTAAJXRy+8mn9Av9TR0//v6KfkC/Tv/7Tz/Q3wAAAADgqdDqSzd+/P2f0Hd/qv+h6Q2O6K//8H39Ly5f0D99ck+zz/Q/c36nR9/pSALyix/e02Txhf5XkTifgmpkMiwS3K98RONXH9FX9bdOfvZz+vb3vqDhnx/Rn3yovwMAAADAk6GlZDhLJv7DTtJ+9Sn9zT98SitOkrGmQlaesMgVub/8Tfpd/e1zJUuG3y/bGuVTkIbsJO1Hv42TEQAAAOCpsv3XMauVtP+ib3zzf9FffF1/F4tOBKkDK6OVybCkQ34AAAAAAEjJ9muGv/4BfUP87wf/nuBmow/fp6+J/61++d/Zv7vKhx/QH3wFfgAAAAAACGX7K8N5/e9vpKj3rSqheH7Urgx7feqqua4rLylvX12XzJWdbZeVFFBhHyn7W/RzYR/V1t6qGvRfFstBwuvS8/Iak/etdn3+DGnXtPv90n6o9wYAAAB2yw6S4XQJbJYg1idQzwVOmcTXXKUneU2xdbNhJu8LR7mKThYL22cJ3X/+kbVtkOw8KfyIvrb4tLIGvDourN+rbK7QSaFLdEoJqPqeDN/WJMNV8vPvS7XbRbsLfq3TFQAAAABbYftlEj/7XK3Kfe3DZomwXGHLEq6O38UvEzmdUJUSYZmI/aM72frqHx7RePA+/eB7P6cf6+8kv/ihSNhKjwl7n/7klZ00h8uWrJyJsOQD+v3fEb//2+fux5mpuHmf/uDrer8PP6K//ktbJ4H4/luibfrp51bbIpl2JcKSr/8mfadyldyk2malz59/RL3PPqW/+2H5qR+53YX91rp+Sv/0K/0dAAAAALbKlpNhkUz8y38RfeUj+tNS4laHXF37CX1bPvtVf777U3lp25EMPWv+i75r+EB9/uXXaCySQufK4s8+o9lnwk/fcPwm+OrXP6CekPl/f6a/CCFa9q/TN50rv0S/+1u/TvTZ5/SvjsTwx/8u4+YD+j3Gic9X1YnWF/T/TDkqma5um4XHZpncflMm9IvPSicB8jGArhXvzE9f0H8iGQYAAAB2wlaT4V/88OdZMvFnoY8Ay1YmvyOTvvzz5x/Qj/5BJoT3HVpVk7W4hg++KZPHT2lS8eazX/zqi/oEUt+A+B9yO02exH7X88KJGNmK3/mgegVW3Vz5Bc1+YNnzq0/pez8l+sYfxT86Lkumf63Ro+c4CblK6O1EvI4qPwEAAABgK2wvGf6ZvEHqC+oNfjNNWYO6TH5Ew6+I5OkfypfjO4G8vC8T4p+u6O8dq7u/+KVIsGSybK8mrz/2jWQC6dc8yVbbuH0bJdvLB/SnjhKHX/zsc1qJE4Hfd10FkGUidtvfE0krAAAAAACD7STD8kYhmaBUXCqO5336kz+SK3GRl/qfA1//ijghIPrBv1Ss5MobuszVZMfHXUMrfpM1sHlphmulOEa2h3J5xRf0r/8mEu/SirIunVE3vlntymQeAAAAAIBB+8mweZe9q661KR/+mkieuow+IXDU2n71N0Qi+tl/15Y71KJW30VyqW8MM8sxGsuuQj8zef0c6l99Tj/6jOgbv1WMnazkphtvHwQAAABAe7ScDH9Of+983FRCfvXftBIJ4f9MUXrxVKmotXXeSBaDvjGMfvnFOvlNJrvE+/R7vy1k6ycsqBIJxw2XqkwjoAY4RfKeyXDf4JcTcqMfAAAAAHZPi8mwfl6tvOmrrURYgORD4q61rbwhLQUtyv7qH36kZP/oZ5/S92Wd+W9/4I4fZ3Krn1hikZdffM/x2LOs5MJ/I2auV6XNCW70AwAAAMB2aSkZlsmFToTZl7E3j08zbwaTL3BwPzEi2149Yq30dAq3rOeM+1FmH9BfyBKHn67o244nTmS+NW+QkycwP6G/sRJGuZ18a1oxyQuVHYJ+5rB8SQUZzxY2+N1v6HrmQttS/3uaiX1KpTMfZs/0XS3uLfv0Pr/xEePGTmGzvmGxZLPxAo1uPe4PAAAAeNq08wY6/aYvH8UXIGSrc/IVvfZb0fI3mpVwvfxAUS3rqZL5oOp1zBJts/MVwht/FHD6L1/RN6k7qeHKrtPPQR5DdSU2eQKq/ylR/f2h/P5z+gPXmwmr9inEiE9Xl83ipMz5JkSfrMzf1W/eAwAAAECb7OB1zAAAAAAAAOwH23m0GgAAAAAAAHsIkmEAAAAAANBZkAwDAAAAAIDOgmQYAAAAAAB0FtxAt+f88d/+o/4LdIl//qs/038BAAAAoE2wMgwAAAAAADoLVoYBAAAAAEBnwcowAAAAAADoLEiGAQAAAABAZ0EyDAAAAAAAOguSYQAAAAAA0FmQDAMAAAAAgM6CZBgAAAAAAHQWJMPPgMXVCZ1c3NJK/3srLK7o5OSCbrfa6FNkRbcXO+ifvWRBVycndNEwaLYb77r/rhb63zVEjImdjF1uTG51jFfopHQQ38uP6oNtjid/W6333w5iqrj/Nv2dhhR9kqpf/XK25d/6dlLZ+5RpJRle3V5sJjDz03FnA9BlFldjmvVH9PFpT3+z/6xuX9PNckiTy4H+BmwPcfI0nlF/NKX5fE7zfeuD1S29mfVp9PEpPZ2IBsACcaxocWVYHEDkBGZ+rnfsbKxm7pZO+r9Hp9cBsf9cfaQmXDEn7HoOCGJBn9wQjaaX9LxS4cCYTI0zxh06rR7pnvp0/MLUcpu617W1otvXMjg+pid0bhdBS/7GsVjj8G8rvqnqx67EsR+USQAA2qd3Stfzp5ZUDuhyft35g8TOeHygpf5z/8iSi2sEB3jSII5zdpYMqxoVWQOmzoLyUgrG2VBhey3DZHVLF8bv+c+qvfFM/LWkm/Pst0Ltok+uhV0KUtxc1+dU/V6h4xpbl5MrqtfGAUeGTw+Dor0ufeptDva/3UaArj5dbPJY3NhotO2Ni3Jb2Wcjo1SPFRij1fr57ay1zSQ0Jq0NYnXM9yvKD10VCevvnGJMW/t4+93ev+xXZZtdGqbk1tkXZ0tJ36p+1rh089mjYMZBcbuNver3innA1Mm1Xd6UX3fbZ36fVu3vakt8Wdi2su9r/FBFij7gUO+vIiwfGAJ8tqvfEx6L/USOKUlt/wXItWwytzP9W+8bXnvsWLb9nDCOnyK7XRmejenkzSFNdRnFZCgC4LU16AxUJ4/JKL+Y0uheyFhHxIKuztV1zfXvh2+yDh5cin9PhuKvvvg52z8/G/LLLSK3z5rJt58QjfNAkgF7Tg9n+W9zmo76wtQ8gKp1lGS63BuypV9mNA4IQJ6Mej1MSvZKc9WAzfHZzPF/nb58XTm6OBGxeH53rGMxW8HM9KqLi6ytm6PJui1loioRqloFjYvRsn4BdjpsK8KJScb4iNUxcB4oEtffpZg2xjDH3tL+pTERQ7wtKeYMnz0cvyhq+rM2xg1c21WVDJd0D5qPffsXCfJ1YFwn7YMaQux1wdIhMgZS2Fckbkwpljd0Xtl/AXItOXXtV/uG1x63bzM/txPHT5UWk2Hp2PxMouJsoj+iqVHDMngpgmB5R++cXpb1e0saTsyDeY9Oz8Q+s7cVA1leAqhKSnJC5Wbb9ws1NvJyar5/dtnBnLh7L45FaC/p4VF/UcDU0SVbDpCJSK+WdOd2jEWsjCpfOeQNLvWAzQm12SRG3ypdJbG62PWsmV71cfFID0ux58vNFiqG6Z4eOV2lqLPFxNYvxM7QWl1TJ44fciJ1DJoHbEL8kOOKuXwMc+x17F8aEzGkssU3fmw49nD8omnUn6G47A+Zj337mwT6OuL4lqwPKgmx1wVTh6gYSGGfja//a6i1IUCuJad3ehYwNnM47XH71rWdDLcUcfx02eINdA1r79TNFGJMjM0EW3zUmXOefAzolThbWt6cu5NvFyy5Bnr7o4M6Y+RZnCFLnKptat9qdKyUfUCHfRF/3tErYMtg+oplr6TO5hpY+ob2a4Qu/UPRooHWqz4uMh1nbzfT9OKt/P2Iqt0VEaMSWz8F007nvib+mGSNjyY6NiKwjbqY5thbt39jUtmSYs4w4PhlF7D6osanIX2ZwtdVbKsPQux1kUKHKlqT3dYcFCs3Nl487XH7tnK7BHH8hHlyN9ANJ2aCXU60e6fX6ju1lK9qbniXf3xy+Szo6qR46Xw+HYkzuA2xOqYmnR5+m5vC1zWtLqy4kJeR9AQ1lk9M8KyypPF7Wjt9OsWNj/bjoq020s0HIWzDX83YjV+asP8+DWUf+qBNHdLKbqv/tx1Xzy+O942nkwz3DuhI/O+eeXqoam9UsMzIWLgrEyjXu70+6zIvnVdR0rFSdnY5vn9Yv76niJBR6yuOfwJsLhGor7dfm+hiwrL7Hd0tN7Vd2Yd7uTEgRl2kstOCH5MMWtKxQEwbdTZx7G3ikzqS2pJizjBoy+am+PTy+TTErhS+rmJbfdBURgodqmhDdltzUCO5EfHCaY/rv8rtEsTxE+YJrQznl3JfFy/jyrsc8zskzb8l6tE8fVr37cGh+Jdd08OQW2BAqmSmsL08a9MraTrQNpfOV+o5fiLGMmp1dMmWu4xFajKkM9apMVOGz1drHPLkvurSlcZnc06F/736snUVcHXxwogL1Va+kmp8nHGj8dni9JGDZHYKanUKHR8GKXWsIqqNujHMsZcxJgSl2jrHNgWS2SKbajhnlHRtEAc23BhnUdeXAq9PPfsXSOHrKrbVByH2ukgUB02OxfLf3BKztuagELnyBjpDf2+8uHzDao/bt4njOKQ/9pgt3kDnSRIYyEu50xEVkw95l2Ne3D24pMmRCLz8NzGRDCfG5ZXeKalafF2TlD+yxCvXQq6ebS4ny4+8/TVfERzQpbzpYX3pXN4BKgvTNR4dpWxbl/H9iKaBK45eGT5fGZTslb5Rq4c5HptzKvzv1TdAV7YuDPxxkdVYFS/rTWlExcmvQGSMlklnp0+n0PGxIaGOlcS1UTeGOfb6x4RA+tW3TYF4W2x9Y+YMn67xcWDBjnEedX3J8Wn9/kVS+LqKbfVBiL0uksRBg2Px6lGukXJpaw4KkDuc0PT4bj2/juXb3upe5OP0Da89bt+mjOOw/thf3hMH8C/13wCAALLH2ByVaoSrvgcAANAM+exblbiFnoSBVngu/fHkbqADYL+w632zx9bQ8CUSYQAASMqC5AN7hmdIhPeD59MfWBkGoAHZKnCxcqs/mjpfJAAAACAeNd8+nNHcfOAu2BnPqT+QDAMAAAAAgM6CMgkAAAAAANBZkAwDAAAAAIDOgmQYAAAAAAB0FiTDAAAAAACgsyAZBgAAAAAAnQXJMAAAAAAA6CxIhgEAAIBnjnxT2EnVa+IB6DjtJcOLq/U7r0+uCq/oimYfBvOTmVCU/y8o/rX/K7q9wOS5PZj+btyvmhg5qdoGkWBM+uDOz/JlAScnV5TmyMRv18+CrsQx03/IDI2Fbb0pLNPrIvEkkcS/Tz0n2fH8W7R1y8erLdBSMiwG9Him3sQ1n8/xthgAAAB7QvbK9OHkcu9emb66fUOz/oheJVZMyaUhvWzd4B6dng1pefNJshONNCAnAfW0kwyvHume+nT8Aq+kfbqISe1aTBrXeAd8cpxny/A38IEYSYFKDIcT2r98aEXv7pbUP37B6N+QWMjk0vDldpL/wUuRds/o7T5lw8hJEvP85qJ2kuHHBxJDDwAAANgreqfX+7kyuHpHd8sWEjYlV+bC27J5QC+HRLN9yoaRkwAPyZNhVVcynom/lnRzLv6265/Mup2K2p2snmuzTWmTggx7hU3XstTtr1G6OurGWHVAtToIbDur2hHKbezNt+HbkFP0WUUtHMP3JrYfcn2Lcvz+zz4bnartFvh0XN3ShfF7yQSG333Ux1993/h8pH63xkdeX2f7W+LvV16ssOLDorWYKvmH0Y/WBpUxlCA+fH2Y4fG7T486avZ1xYhJtH9d/RvqS5eRnG0ESu+qvjDtZcorblfsO5cP68a80+dKvmPeN7F1rRpDmtW7OzErHNGBmQs3iIUcJddTeqFkSeE1flMwbTo47Mts2PmbaovT17Xwj5FK7hPJSUzamH/rx3SYnq7+8usc54ttkDwZHlzOaT4Rp4XUp9FU/D2fry9HKUeNiSayZkd9pjS6Hxc6UG5zfkPrfefzCdHYcOryhs7fHNJUy5gMRYC/zjtEOvqcHs7yfec0HfVpNnZPWoNXI6GldTlHBMsb340GtTrkdt4bNshtZjR2TS6zMZ3fHWtZsoYtzAZJyWfSZWrwb+D4noXQ98Tj/5ujiW5D/i6/H4p2rfq8kt0cHRd0lRm6/v3wzSY2gvxeQcmXhfhj9k2Nj1zj4/rUHWn+fuXp45dThrNP5u+ImLL8Y+vMlluKoYTxwYjzar/X61FPk301LP/6/MDxpX8u58bHQC4lli6tZzd95WUDbHme+dlGyi3EemHMx8HzcZHHh6Uw9pAO9L+TxILYWtZHs0ovamM+zKbewZH47z09OmyNPu6uCTtGPqWcJKfUZpL5ty6e4vQ08evcvI02aekGOheumxZ6qth+cwapB+7oY9rkBwO6NBMpcYY7NepU1CS6vKN3yplZHYt5Baz34lgMgSU9POovTHov6FidwBqBr87OPTca1OrgskEOyImQuqS7bCMDkSgW6m4CbXC1N7jUgz+H43smtbY/kpzPzctx2UHONSnadsfoKH2Vbx/qdxcuGWb8Mfum1kdcOP3K0Ycjx4azT7ZNVExZ/umdnhl9FCLXjiGbBvGRcp4p6BFKxL4M/7L9sKbsS85czo6PwSsSx0W6NyeKxVt109eZUjRAXtD4c/nDOuYEE+PjFT3ei/8dHaz1LhMRC8qHzNKLWr8F2nRwWD0eYo+7a6QfQsZfFZyYYsRH0rlC4mizlWO6GU9NfcrRuWkb7bK9ZFgVsIt+GheXyLPLFzpZ0tscFa4ThSLPPgz54lSlulaoRy+yUamDJ8GNBpU2HJC8crS0e72wEpATYAPHZxzfJyGz0ZzkFnJpx770J7HtZuk4oFfiiLm8ORe/WWeToX53wfFlUHw1gKWLxKMPW44BZx+9TZqYMvooRG5p7LQcHwXq/F6jh5cm+1ZR9q/fD35fcuZyfnxkc/Hy7p3wbIaaO/K5OFgek0p/NIDtYx/NY0H5sH9MjcuQk9kkSXHcTTAPc2IqSXwE6sppk6N7CV88NfAp208J+q0ltrgynDGcbJbIN5/rwtlmPAu6Oilepp9P5SWZarJVkxm9kZGx9RsNXITbwKVd3xvIy2062MczR4lEDT4d1c0v4jt1KUrVfzW7nBlGe30Tx+71aSumYuVuJz78fm+ix25jfINPD04fhfSjWiUyViKzXLg4c7QVb3vD/aNIFzY0i4VtPVs4nGbH3bTzXrsx1e4cHap7dTxt41iy++NVHdtLhnsHpKqI6k7hOdvUoc9OwpLZ7M5XuSKxYNxo4KXShqyEoH9YXgcuEGrDNvzKRd8NbdaU5fXAXgJ1VHVgaiDp2rOmfpf4dIiKr0g4/uDoE9P3nH1i5FZi9FEiua3ER05AHJT0CKDJvkU4/q32A9+XBjH9qC6f60vu8vK+ORcniosSbciN8LHYiVSZbQUxsZD02cKhNqmnN/Spelg1OO6mmoc5fd80PmJ03YJepXhq6lOOPqn6rSW2uDKcL9G/Li7Py7sh13ck6gFS2EaeTTDPhnWHbC7Tr+j2tX8ZPqvxuaGxrHlhPeOxDpcN0syxmpiy+rcagm1wtCd9qi6X5HB8nwCle37GaXxYbTB0tPUtTLhMv0sZlZccPfEXGV8l6urp1jD6laUPJz5sWo4pecOJsU2xjxrItbeJiQ8OPr/X6iGQv1fFoG9fDh7/svzg8SVnLg/vx6zmUSZIt29n1lzcIC5qcfmjeMwp1RzLNkPHj8AXa+oJDMsHkV5qavvAR+pnC4fZtHqUaY+jPM4g+ribah5mxZQ/PmqJ0tXRZinmIsZDXTw19ilDZ2Yb2dNG4sqCmrDVMgm5RC9ORorJkrwL0yw+F2csmyV8+ZG3S3Ivsw/oUhZsry/TyzsXZYG/B33zhji/TfKMR2mDbef4fkRT1ippuA0ln0mfqrO+DRzfNyerHyteupnSiIoH5yq8Og4uaXIkZOW/iYE2nGwuCXH8nk3S1dTHX2R82fROSd3noOu9ql5d6u9Xnj6c+LBpNab6ok/OHtb9OJ7JqwmbPoqWmyA+eHj87tGjNgY9+7Lw+JflB48enD6K6kf5wgaRIN0Ine25ODouPJRi3T7mSF9EjB+vjy1KT2BoEgstlPyF2FR+MoaD6ONuonlYwIkpb3zUEqdrqU1HzAWPh9p4au5Tv87p+q0N3hMJy5f67w4jzlAuzkXKJgZ2w4m1y2SPVjkq1QhXfb8L5FmnmsDRzzsB/m/XB/DvU0auOI7pfjStfNwil93OuVw7cNwF+8PWb6DbS/Kz6D280eDpYde0ZY9cSXe5rgn7e0MJ6AqIQVCFvvRtPFEjjvwxV692M+cWHolXA467YI9AMixYfCLrVhLdaNBhsss2fSo+7iVbIdiH15+qG0qGk8JzDgHYJohBUId6ysLyhj5hFaRWMaDLefXLfNplRbdvZqxEHMddsE+gTAIAAAAAAHQWrAwDAAAAAIDOgmQYAAAAAAB0FiTDAAAAAACgsyAZBgAAAAAAnQXJMAAAAAAA6CxIhgEAAAAAQGdBMgwAAAAAADrLs0iG5StITy5uG7615/mwG3/IV2vGtttk3/2naX88mfheXNHJyQXd7lDRoq+YcbUHeoeydzFR8GGL49nRV/LVwycnV9ToPRVPljS+TjtHPe/5PAlPcM557rSSDGeTkxgMhU9XJysAAADtkL16eDi53IPXvQMAniotrgwPaTKf01x9pjTqz2iMhPgZ06PTa9HX1zHvmW+yLwBVIK52w/b8jtdb72OMt6gTVlRBS2ypTEIMjo9H1KcZvUEUAwAASEDv9Jrm3c2EAQCJ2G3NsDrLqy+lULVIVwuj9IK5usyQXUbXOhX2s/a15QrdTHJ9i9s5zmSZcsp2l3W0dvVil7EU9/fIX93SRcVv3rqz0H2jfK39VGir6H/3fg59xBfOuPPo5SeyDwvtMmLKEfPVdoXrVIyjcluKUF/VxEiMjq648usd0T8+O2vtsomMD4PYsaFg9JnPhy6/l+RWxYxBeDtt+c4hx+OnXE55rAlCfRE6d9ow+tRHsS/q/crq/wp/FbfbxKf6fTwTfy3p5jz7/aI4sRv7iU+Ngu62GH5V21tjhtGuf84RBOgP0rO9ZPjxQYQw0dFBduFEBcf4nkbTuS6lmNNkKEspHJPzbEznd8c0Vdv5a8OCZK+Rk+g53RxNjH3k97LcI2szk0vF8o/7cTlohb4nbw61vlKOGLyvN4MqRE7R7kzHh7N8vzlNR32xWZ1dRWTb5zdk+GZCNM4Hp0/+gq6ynfXvUzp845nE14TtG+frvBxHTCTnD3S2/q7of4XVR04/OuKOrVclkX24vKFzb0zFjqdwnUpxJMNIHag2hPuqLkaax77Er3ecL+rtDIn9NHYqIsYGp884fW+TyQ2bk8Pbact3ZTkcPykq55AQXzSZdwN0raHUF4Xjhp8Qf1UdOweX4jt1UO6v9bg+NfOJQBs9fcyB027Jd0nmSpCaLSXDYjDLzu+P6JXKZLObHvqjj0nHsmJwORGp55Lu3tnRKBJSdv1RqOycR3oQ2frw5SbVHryUA++eHtUurhs1enR6JraZvS1OCsLOqaGvkrO8o6zpADklu7NaLPOqYO/FsZgalvTwqL+oxeWbAV3qSTpcvtzetCOEun1jfd2jF8d98f/NCcx6v7X/NVYf9U7PHPFh+z+k76qQdkf0ISOm4sdTqE6O9gaX+kCVk8pXRj82in0JR+84X4TZadplk8JOTfDY4NjC8aGNYx9B/Zwc005bvhNyCvNDSJ+755AwX9hIO6vixyZE1ypcOpvHDR8BOtTOc1VE2sg6BtTBadfhu1bmStCUFpNhvQqhPmN1k8O6oH71KFLMzSrxhgM6FPP10p65+ofiFyahstdkv8/ebkJv8VaevR2REqXlzsa5TfqjzvDyhJlBiByn3XL1w9hPnHLKFXcWlb4xqZM/oFfi7Hl5cy5+C11tCdg3la+DcMSH7f9kejXoQxeV/RoyngJ04sRRlK98MdLQbxy9FeG+qLczdNwkjg8uHFvYPjSo3KdmTo5pR9GW7wxdWX2uqZhDgnzRZN4N0bWK6L7QpNChjmTy6/rAAaddju/a9g9g0WIyLFcg8iV/8TFP1/cZeelEB+N4Zq6iZAwnhk3rz3XhLJ9DnJwFXZ0USznmU3ljYir88tUNK+J7dflK1W3xL5WF7pvK16lpplfbfRhDezqF+qo6Rrblt7h2fHbyY3/38bGv487Pdn23TT81mXcl+9CnbeuwKxtTtbsPfdRldnMDXe+AjsT/7kunPFmpQv+QvQ5cJlb26h3dLTe1SNnHSIQr5QbSRI4+gzRLOYLwtR0gX9VvqQPNjIzFdBbefVP5OghG7KXQq2kfuqjUizmeQnXi+KGhr0oxksJvHJ3a8IWBN/bbiA8ubfVr5T418RnTTqu+M3SN0S0nxhcGwfNuE11zmspIoUMdyeQz58scTruptgGts5tkWKSYqhTo5nXhks/iaiyG+JDOGp0KRcpWAZmfdRuf9d2k+aWqolx1B6jvTt4CDeToQbMp5VjR7euQy4Au38jVFL3K4JNv66huiuwTa+4I2jeVr2uQN6QZsnixl0Cvxn3oouF4CtbJ0Z70gbqslxPhq7oYSeI3ht4RvvDaWWeXTSvxwYXTZ5y+t4mJz4h2uL6TcnzlBrXzQ5N5IMIXttyQebeRrjkunY3jhpcUOmgODoXldg14pHzPMaBUryzlBc9xnDhO6B8QzY6SYdH94gxXnOAWks/x/Yim7KL8auJkZ/VCxUsVUxrRZsDIS1W2XHU3auEGCT/xcgZ0KQvv16Uc8s5peeMFH+mbzaU2+ZG3sOZ+8cgfXNLkSPgj11kM6OGEeRkncN9Uvq5E3jxx9rDWZzyTVwX8sddcr+Z96KLZeArXqRRH0gdCAfOSdLCvamMkjd/8eoe347UzKPbbiQ8unD7j9L1NTHyGt8Pz3epRrh978MwPTeaBYF80mXcFzecsR18Ujht+Uuig6J2Suq9M19fmj1aLku87Bki/J5jjOHGczD8gmvdE0vel/rvTZI8/OSrVCFd9D54u8vmR6uCDiQaAzuEb/5gfnj/oY2Czs5Xh/cSuw8oeeULDl0iEAQDgybMg+ZCg4RmSIADABiTDmuwyRX99+SX7jOlePuj8qTwJAwAAQCWr2zfqMZ+Y0gEAJiiTAAAAAAAAnQUrwwAAAAAAoLMgGQYAAAAAAJ0FyTAAAAAAAOgsSIYBAAAAAEBnQTIMAAAAAAA6C5JhAAAAAADQWZAMAwAAAACAztLRZHhFtxcndHJxK/4yWFxtXrhxJV9FV7HdM0a+prJL9oJA1Bi5oNsGAYIY2yIJ+guAzhMxjjDPPS2wMrxmQVfjGfXlG+fmc7x1DoCnzOqWLtYntTZirK/fMpl9nJsxWd1eFGQh+QQAgKdFR5PhHp1ei4T32ng//eqR7qlPxy/MN9Y7tgPdZN9W2LDiV4lakTm/oaX+t83iakw0EeNanvSKz2RI6jXsMQmxbEs0RaPpRt58ekx351ci5QYAbAXMhzzgp0qwMpzz+FB58AQAPA3kKu141hfJ6ZRGff2lxeByTuaFn8GrkTgNFgnx27D0ddPWNZ0WzqFP6Xp+Sbi2BAAAT4P2kmF1BmJcOrSXXfLLmPpj/qxWduQXlozSyo2vDYF9CTPfxKznUX+PZ+KvJd2cV2+XUyVT/JLVGDt/y8ht28goryC52hRfim03Z3S5nOz7rK3yGZ9fn0pq5Qps31fZ4bQ1Qq+6vta/FWSo70y9/W3WxooVHxdrwaG28GOkaLPV95X6COp8JakZezZFn1Ssdvra88LwIVPn3uk1zedWctoKK3p3J06f+8dUuJjkQPWXZzz7fOCLiZyo/qrazsTn/8AYqBprktzW8rwh8LbD86NTtgGnz3h9Ejo/eHT02d+wn1xt/538zuGnoo/C7SwRaZvSo8l86KAYnxXjgyvX2q60WaB+sfER7CfL7qp28++L+4ePg1q7tkArybAyRl2JzC8dTml0PzY6ZkFX2bXF9e+HbyzDZ2L7N4c01TKmo774auNgfxvZNsVLmBOicdnBcqVoLq+VklzlybatKhmulik7+5wezvLvyzqvEbad3x1r2xqsIFk+mgxFkL82JyemPjbLGzqvlJv7/t7wgdxmRmPHwblsa7he3r4eXOpL3Xnf5vXfH+ukyN9mXay44uNaCQ61JSxGqvq2Wh+Gr6RvfGNPU/KJdImaTDf42/PB8Qlf5yj0VaHhy5CR+EgPKhd+kaCEihkXteM9pL+YY3dNvf9DY6Ckp2tedsyR/nb4fkwy/0pq+yR0fjCIsj9RP1ltf+ulnGtmVLxwsqC3IrSy+G9gp6aJbc3mwzJyH944Ysi1jqW2X2L0U0TEh99PjHmhauykGgdV8rdAC8nwgj65WdJwYhrSo9Mz0Qmzt+uBWUTW5lqG90c0NWp1e6dnNBSHrLt30nucNrJtNgmRZECXjRxcJzOrLzaT6N6LYxF2S3p41F+sGdIkRR2y5aOBnLSWd6RcFKSPRa1clw/kQJsY/WNi2xqqFy+esvbF4BUDX9aEzoQNH68V9LUZGyuhtgRsX9sHVfB8VUTq5LLT4RNx0pFNpjkx7dmE+lBSpXMMYqJ+I4/qI3oVIlDdY5AKpg9Cx2VFf/HHbhWm/0NjwKWDa6zZ8wanHaYfS7IbUNsnXH1cxNhvI9uP6Ser7cErVXJ0/2jEx+KtmG2HdKY6sYmdkqa2VREjN9sn2bxnxUd4HlNFivjIcdgscM8LFWMn2ThIODYDSZ8M64OEvCHFXBLPlufvKRtPA3olRtfy5lz8xj17PKBDMSCX0nucNvQ2RwcJ3eqVKc+ADH3E6aWzDrl/KKzZBkx9Qqj0gdE/Jk5bA/RixZNEHFDlhCXOLFUd58f2gKpps1GshPq4hT7JYfmKOfY4PmH3jQ+fT2LmCx6Lq3O6WbriZds0jIuA/mKP3TU1/g+NAY6eEnveYLfD8OPW5l9JZL9G2Z+on0r+6dGLYyH37p2wJmMhl4WHL0WLOQ3it6ltVYTYnKP3aW/eC8xjqogeHw4qbXbMC9FjhxkfWx2bRVqrGR4ad2tvPptavqy2Ty+nq/qV8Muevja2y4KuTsSB9Wiy0WWa3ZizG/ZNn5w4vTh9vXqUQ1pin3G25YtQudvpk22MPZNm45Dnk9Q6S2SNmjxWDCcRc0bvBYn8oCaBDGE7cdEEn/+3NRfXt7NvfkyvT9OxHdtPaiXPuAqR5cJ5KpzGzqa2VdFWbKaSm1K/tmxtxv7Pb5L0yXDvgI7E/wqXVGpQdSzKMXZNko2u0TsU5w2cNgL1YFEnU59dhdUdtkhb+lT6wOifOkL14vbj6pZeq0s9UzFZyjNkY6L0tRkbK6G2tB0jgXbUjj2OrFi/mQT6hD9f1CNr5LJEuHj5jk+2WkazN81XqlPERaP+Yo5dQcn/oTEQGzOc/doeX6Gk1CfQb437yUad/OlL5rJEom+UFTW1s6ltVcTYzNmnkS8D8xguTWRV7sufF2rZt3FZQQsrw/nljNfFg4S80zC/89T8W6JuYOlTweey8NzYRtWBUl6jxGhDbKPKVgrbyDOUJitKNTJ1QG0ez7Si29eBlzo1pfpQaZe63BFAQn2KuHxg908NwXpx+lrLEBO0rBM264cV3jYZsXJwKCLUWnEOtSVln7j04fiKM/YUDp+U4pDTNx44PmHrzEMmwueqvq46EVZ3Nnsux+b1fzfn9nYydjbfecdzkrjg9VfU2K31f2gMMMaaE0Y7CcfX/s3BTcd207Ga1Z/KUonbt7PijaPcMVw5npraJoidD0sknvca5zFcmLIq/BQ1L3BJOg7ao5UyCXk5Q5y46UsZ+iPvNMwLo+Xd/0ciSPLfRKCVLlXKguyzh/U22fM8N8Xh3jYE8gxyc0lFfuStlmaBeTjVMjc1q9n38u5JmZRFoJ6OYLQh7VJnwiEk1MdC+sD2/fhe9Bfr5sRwvXx9vbp9bdV9btrI8mF/m95Y6Z2SuhdB12Rlj6QJtSVhnzj1STT2NCWfOOKQMw7rYfgkQGd1V7SWI/JdQ25+IM5uFpGU6uu4tYhrhO5zO27k5w0dms8e9o7nNHHB6a+osevxf2gMeMdaBf52Eo6vPZyDm47txmN18JKGIrm7Ecfi4sup/HZuStjcNLVNCIibDx0knfeGE5oe3631jsljuLBkVfgpal5gk3YctMV78/n8S/333qBq+WRHRAQEAAAAAPYHHNPBvtPaDXQAAAAA6Dr6hrszJMJgf0EyDAAAAIBWWN2+odlwEnmjKgDbYS/LJAAAAAAAANgGWBkGAAAAAACdBckwAAAAAADoLEiGAQAAAABAZ0EyDAAAAAAAOguSYQAAAAAA0FmQDAMAAAAAgM6CZBgAAAAAAHSWTiTD8lWQJxe3lL2F+xmwuKKTkwvSrxUHzwhvrKq+1++Pv1qIL1Z0e9FOfO9+3CzoStiZvz8f7AERcw8rjhhxvTfzeIL5N8aWvbGfC45T4Anx/JPh1S29mfVp9DFeBQmeOiI5HM+oP5rSfD6n+TN/pdPiakyz/og+PsXIfd50K66jwHEMgFZ55snwim5f35CYQQjHU/DkWT3SPfXp+IUZzD06vRYJxPUzO0iqg/+QJs/NrrZ5iqtxsXHdmZVHHMcAaJtnngxnE+o1ZhDwHHh8oKX+89nTO6Xr+SVhjbADdCmuo8BxDIC2aSUZdtY2WWfxahtZG6a+F3+rT/1ZPnef+PavSFaryVWpixr5xX3ER9W4bchlr24v9DZarsTe1/ytgo2cmu09OtkE6WjLKvjnhEpNRfjn7+R3DtuKfanrCA3ZpbY9lHypbLHiwhM7ikB/Z8Trr/Qaz8RfS7o5L+5r65z7t6ijHccNfdlCDGRbhOtV7FOGLlacuf2ltwmdCxwxbOJuy9bZ7wOX/9QYsmKkUG/t6RMXpfGivy8QITdH2cGMaxPXfrmtLt+sNQrsL0mrPqiJA6f9ansjDj3jsKR7i/Od30/N528A2mK3K8OzMZ28OaSprBMTn8lQTGyv3ZPfmph9qijImtKoP6OxHKTnD3S2/q4oXw34MdFEt6+2uRdy7FEtZJ/fHWvZ2QpXtu89jab5vlJ/2abjIKuR+5zLK2T5PhOisToIbGDrZFOpY52sBV1lCq1/P3yzmfhi/fOtl0P5Jb0tbLagt8LU/vEL6qmJ9JweznK5c5qO+kJMte9snL4UX4SuSsX5u5n+g0upr/RRf61/bWll7Thp6st2YmAQoVepT1Wn2rowxlzBX0Jf9lwQNp4VVt8UbQzwgT2GHDGSrybGxGzJtynnHk1wXGtc+xVWTkuxFddfrfpgeUPnlXHAwT8OS7qLL9qY7/x+aj5/A9Amu02G+yOaGjVhA5kQLe/oXd3giNmnioKsHr047ov/D8Wgzy/P9uj0zJS/oE9uljSc5L9L9Dazt+tJKMOud8z27Vt1X4PLidhySXdOAxz7DC71QSAnRCcbt45hsuQlvHz7Bv4ZvBLJBtH9o+GHxVuRHg/pTBkv2ykeKHsvjsWhcEkPj/qLWji+5BDr76b6B1I7TlLrIuUliIFgvRx9Klq9XI9f1++y2x1jLnIuCBvPGqtveqdnxj4hPrD9V0VMzDrsSzr3tI17bgvrr5Z9UBsHMcjYqYn91uY7TltSty3OfwAE8sxrhhOjbvQQc8C4eKknu1x3T2YeR/1DOtB/KvS+RwfGTKw4oENx3F26ZoTKfQxCdLKp0LFe1oBeiax1eXMufrPO6pv4R0yWMgFZ3r1br7wt5LLw8KUxCcvVBUNuyCoHx5ccmvi7if7JaaJLWzEgCdDL16eVv9eMOS5JZdv7MH3g9J+DmJj1+VYSI3dbPIX5t0Ro7PjHYa3uHDj2sdvap/kPgCJIhiMYTjaXejaf68KKw7ZJqZNPVu/0Wn2nLr2rer1ifVisLmqlwFh5y3LhPBVe0NXJOd0cTTYypyMSx46dEG7jPunfXJd2YmC/+ng3tOeDlHOESVtynxK78oFvHKaiuX0Y22C/QTIcQu+AjsT/CpfyuVTu+0gP4vS4f+hY4+G010Qnm0BZqm5PTWi61repLr0XdNzXlwlliUR/RK/yXFivPmyS40BS+SlWTlP9U5JQl6QxEKqXr63K32vGHJekso192oiTmD7h7BMjd1fE9NfWfRAfl8nn4pxUPtin+Q8AB60kw6U6Xnknqrqssh3aaz+/LPW6eElKyq+463nDgJRa1r7qxQKU18XaOPYp2dJEJxuGLFuueixSn7L5u6kuWS2aLJW4fTvTN85p9IQ7W99ht1LP3hTHjiKyLecNMRxfiq28sRNpI1f/bdBUF9vWVDEQrJdrTMkVqHx1LGbMcWkgW944ZfiisE/Tvjk4FD1h12HG9Mm2554InLZWEdNfLfugLg4E3rnIbsMah37dGW2w7GO0xYxr9XSLmhsaAWiLdlaGB5fGZRvxkXfMbvOSSIvty8tSQtRGdi6fcSOLPHu39x3fj2i6vkmnjNzHZ0sTnWy8sqRvj8Qknv8mJrzhZHO5rLEug5c0FAeJm5n9EP4BXcobMuSd+EquvDNZ3vxSZPUo1x/cOH1p31DCiJ04G3n6b4eGurQWA+F6lfpU3fa+GU8xY45LtGx549TZw9p/Y/lmsWm+T8O+6Z2SurdJ13jmjxuL6ZNtzz3BVNhaRUx/teqD4YSmx3cVcSDwzUWecejUvaX5zu+nfZr/ACjz3nw+/1L/DcCTR64sqAMc92CsVjDk45bar+8DIDg+AUgJ5jsAnKBmGDwj9E13Z0g0AAAAAMADyTB4Nqxu39BsOCk8yxIAAAAAoA6USQAAAAAAgM6ClWEAAAAAANBZkAwDAAAAAIDOgmQYAAAAAAB0FiTDAAAAAACgsyAZBgAAAAAAnQXJMAAAAAAA6CxIhgEAAAAAQGdBMgwAAAAAADoLkmEAAAAAANBZkAwDAAAAAIDOgmQYAAAAAAB0FiTDAAAAAACgsyAZBgAAAAAAnQXJMAAAAAAA6CxIhgEAAAAAQGdBMgwAAAAAADoLkmEAAAAAANBZkAwDAAAAAIDOgmQYAAAAAAB0FiTDAAAAAACgszyJZHhxdUInF7e00v8G+0GSfllc0cmJkCM/Vwv95TZY0e3F7uKq6DumLspXF3TbVOFQOana3XOaxHNUf3adBHHVtWODz9598EeUDh2ZY0p01e49pJVkeHV7ITpYDAjrc4EeBwUWdDWeUX80pfl8TvPLgf4eAAAAAGA7tLgyPKSJTHDyz3REdHMukuIrkQJ1CJz5VbN6pHvq0/GLnv5im/To9FrE5fWp+GvX7JMuoDkt9ifmE7AtEGugQ2yvTKJ3StciIe7TjMZbvRwO9pbHB1rqPwEAAAAAdsF2a4ZFQnw2FP+fvS2uDqszUKOkoipZtrYrbcaVo7HLObzyrFVtVRsldypstzmTVr+PZ+KvJd2cZ79vSkV0XeF6v3L7ufyNntWr6m3bwsNvU47LN/m26je75kzpZfmWoW+dX6rb2Wwf5ye+H3JcuhR1d/U9rx2/nCKs7W0/+QwUlOSubunC7lNPvysi2lbE7qepiyUbVmxZAnyxpX6vnE8Egfa52+OOkfA+SRXPTpraoGKxut36vq/XO/fzRkbNGGT4kUVBjtVXErsdS6fUsWbjjwVBcBsx8+Fmm1SxXtffUXbXxYumyqY1Hpm5zsXtHHFjwPEXT26DcZ+Qrd9AN3gps+F7etTOUJ04JqOkYkqj+3E58Jc3dP7mkKZ6u+moT7PxxqlsORq5/fkN0Wiabz8hGltBO743fp/TZDijsd2RM9GGoddkKCaP11mADC7FdxNpb38t5/pUXjiVnX9OD2cb2bY9a4T887tjLf+SXFW127DFT4BNApdvgkuGPfr6/GKTxk9hfqiipLtUXR2ccnjt+OUU4Wyf+Yk/1iROueKL0CsDMW1LYvfLKenviSUbdvtR80kD+6z2YmPV13bJf5Hx7MRzbPCzoKtMOd32lA7fFOfP6r5n6i38zJnHm8ToGssfrnnRN8+1EmsafyzEtBE5H7Y4ju3+5tvNOAYZ+Gxiy6w9rjWgVm6a42UKtp4MF1nQJzdLGk7MyaFHp3L52F497o9oatTg9U7PaCgOpXfvpMcC5Ciy7fujj0mPb8GALteTlOt3OUFMjDY1ll4q2V/ekblJmaym0Ez+ei+OxbSzpIdH/cWaIU1qaw93bUtOiE2JqNXX5xebVH5K4QeHLoNLfXDK4bTDkWPC2T7bhj/WJKF6VBHTtiR2vxyH/rWxZBPQftQYbGCf1V5xXuXAadvhv6h4rqCxDTZSl9weX99z9ebN4/ExahA8L8rucMxzTprqyYmFmDY4/eCyvaVxXOpvvt1hfeOzKUBm1NzDoFYup9+2w26TYXUDlYijcXGJPLs8s1k9dnNAh33hU+mxUDl6+6MDIzpMKn832myMPCMydBWnds5Vsv6haLWGvbAlh2nTNvD5xSapnxr6ga27p51kPjDQ2wSN2VA9qohpWxK7X05T/Zu27yOp/MB457TN9l+q+SN0zA7o1UgcftUN3taKFEt3ht7Meby1GMmptIfps6Z6cvwZ3Ubi+dAmRC+7vwPsDuobn9wYmVsn1bhvxtaT4cVbGThHZPbNcLJZIt98rgtnMhxSyWmfBV2dnNPN0WSjp7q58CnzHG2KYVt+2K2/dznWYtve9fzQdvtPsU827Daee6fXqk11CVfVyHIvnafVe9cxymUbeoa1sb34eSp99DTY7bg32XIyvCCVCw9fZkv4vQORFotzqqjT3kd6EKcP/UNx/hUqx7d95e9Gm03QZ2vDl7yLM7Xs2paclDalIFlMBPophR84unPaSeYDg1CZkph9XMTKadr+rvf3kVR+YLxz2uZsk3T+iJ/bVK2sOhjP6K3Mhn26p9K77RjJqWyH6bOmenL2j2mjjfnQpsn+jeyu6Ruf3BiZ2yTpuG/G9pJhdbfumGayfmRdIJJfnnpdvDQl7zy071KUNwUY3y2uhCwa0pk6HQuQoxiQKlspbC/PUPLVANfvdptMDg7FxGrVv+gAnanZVrKi29exlwa2aEsdCW0q1SrJflSXokLw+cUmkZ+S+MGhi+0DVjsMOQU424eONQlPD3+/x7Qtid0vxxUbdbFk07R9A9d80kR+7bwqJCfpk1TxXEFTG2w/qUc+9inLEzx9n2zeSxgjtbjsKftMkTrWFJy5IKKN2PnQ6Mv25h8Jz25236yptylOJo8kx+lk46c5LSbD8m7FYh3Ikby8YN1EIC9PiRPx9eNb1EfeeWhtR8MJTY/v6FxvM57Ju1w3hexsORq5ArC5JCY/8hbRjTz5uy1vfC8SeXaxvUY/Ti6vM8oeTzOgS1k4L++yVLLl3ZSyoD2OrdlSS0KbBpdFe2Q/qtWaMHx+sUnjpzR+KOle8gGvHb+cIpztQ8eaxCm3cPOIgNHvMW1LYvfLKenviSWbpu2vcc4nDeTLxYmzh8p5NVWfpIpnJ55jg9cG+fuRSKj1/vKAPpxsLnvX9326eS9ZjHiQ9tjtOOe51LGm8cdCTBuR86HZly3OPxKO3ey+Mai1Sf8eKpMFw19+0o2fprw3n8+/1H8DAMD2UCsJ8pE/qLfbBfIZoOqgmDjZAgCAp8ZunyYBAAAAAADADkEyDAAAAAAAOgvKJAAAAAAAQGfByjAAAAAAAOgsSIYBAAAAAEBnQTIMAAAAAAA6C5JhAAAAAADQWZAMAwAAAACAzoJkGAAAAAAAdBYkwwAAAAAAoLMgGQYAAAAAAJ3lCSXDK7q9OKGTi1vxV0IWV3RyckG3TYUqOUI/+blaiC/K+i6uWtAfPGtUzJxckYyofaDVGE41Fr20NJcAAAB4kmBlOAkLuhrPqD+a0nw+p/nlQH8PANgNOuEVJ6fq3DSS1e3F5iR3/Yk7OUkpCwAAQDqeUDLco9NrkWhen4q/9ozVI91Tn45fmJox9N3aShiTfdMH0OBSxND8knB6FcjiE7pZDmk4JJq9tdPN0LlkSBN5kqs/k+GMxtFJbEpZAAAAUoCV4RQ8PtBS/wkA2D2LtzORd76ky5cqG06abA6kTJpRKceOIKUsAAAAcbSTDK9u6cK4FFi6TGnW18qPtYGqSxTfbS4rZisnznpFjyyb4qXKihWZAJlKp7E48Ip0+OY82z7fvK6+0rXfhV6SrbJfYetm2+DzfQV1+ih87QpyvYvb6u0Ketmrz5tL2vnH1LvWHxb2peiS/R474m0QMHxUwt7HUjizx5Lj2SfWBvd+jBiKsVuQeixuWFCWCw9ktklDkWy+sTpL2WqMzZAYc+H2Ha6yAADAU6CFZHhBV+c3RHn97HxKh282BxZ1sBmTcalwSqP7cfkgNxvT+d0xTdU27svEbFkauX2mmt5+QjRWCeCGUJnqMvZEru7013I5JcOu/a5PjYu2Dvsz3e43+otPdpk1P+jW+76OOn387RoIvU/eHGq9he/6cjuRGJw/0Nn6O5Fwv84TEZkIn9PD2Ub2dNQXYizZzHgo9K/qYDv2GHYE2xDoI022Dz/WJOx9ImxQFPar6AuDGLslcr/UY3HN4q1If4ckc2ER2SQXX5d374p2umDEmNCKbt8IPfsjemVvYPluMnT4t0CNLAAAAFtjC2USsj4vP7As6JObJQ0n5oFG/H4mjlalS5lDmtTW9IXIkmTb90cf0zrnHFzqBDAnVGab2PY79BcMLidiyyXdvXMdck3fxxLYrjiwT9d69+jFcV/8X9ZJ5npofy7vKNtV6lg8gei9OBYp+ZIeHvUXCl48FPUc0OW63QA7gm2I6Ztsn7BYC9gn2AZNYT+x1emZ14YwuyWO/ZKNRZ1gDl+u91OlCLadTqpiTJ9IqM85CbWof/yivJ3lO3e7TFkAAAC2RgvJ8IBejUQqc3NevkyobjQTh4NxfjDQH7UidE+P5rb9QzrQfzoJkSXR2x8d1Bx2QmW2iW1/pf4HdCjynKXKHGt8Hwur3aZYZRLnNyKVsmDGQ2X/tmlHjGy9T1CsxezTGL8NwT6t3M8g1tbVO7oTwaNKJHJUqURdcq6pjDF5EpGvTouPSNrVGPOtUDtJKQsAAEAKWlkZ7p1eby4TqvrT4qX64cQ4GKw/14XVJS4pZeW0IXNb+Hy/fyzoSq6QHU02vp6OSORSnSAm1p5yfIYSauvq3Z06kSom0WOSKfTy5pM0Y2FwKcaX+H+Kq0UpZQEAAIii1TIJVYeqEht9t3TvgI7E/+5TLGGFyuJsn1K/1FTq9kgP8lLrYXFNq+T7WALbDUavABZW8mLw9V2bdsTI9unrImafxsTY4PEpx44oW1f0Ti0LGydW+SfLOPHUBgAAACXSJ8PybmrzCQrqsWN9yo6L+WX818VL+PY+LEJl6RtpzO3ltuqya05K/RgcHDpqY6tw6C9YXMlVryGdyaWyWt8L5O915RNOfRjtNkEnPZtnwa7o9rWjTMKLS0+56pyvjLdpR4zsmFjbQnwub+jckOWzIc6njv2kDU3Honq2cMWJlSqVMOOsAatbyu57eyW0bEhKWQAAAKJInwzLy35H4oBq1PgNJ5vLmvIy/nRE68d3qY+8A9t540o9obLkaummfEBva12ST6mfl94pqfuB9CXdwqPMHEj9bd3G9yOa5jdFeXy/epRrsDVU6ONttxEDupSrdvJOfCVbPllC3oAVTql/1aMINjq2aUeM7JhYaz0+5U1gZw/rGBrP5NNFqm2I9WmprxKMRfVsYRE57osMWQIeV45g3vQmPvqJLYWnv7BJKQsAAEAK3pvP51/qv8EzRz4LVSUqbST2oBWyR5AdGU+BaA/EBwAAgC7Sas0w2Cf0iwjOkOg8JR6z4tuKpxwAAAAAoClIhjvC6vYNzYYT1gtBwB6g6rt1mcLHOIEBAAAA2gJlEgAAAAAAoLMgGQYAPAv++G//Uf/1tPnnv/oz/RcAAIBtgDIJAAAAAADQWbAyDAAAAAAAOgtWhgEAAAAAQGdBMgwAAAAAADoLkmEAAAAAANBZkAwDAAAAAICOQvT/AVZFAkfyP8zZAAAAAElFTkSuQmCC;" parent="1" vertex="1">
                    <mxGeometry x="2730" y="1526" width="707" height="214" as="geometry"/>
                </mxCell>
                <mxCell id="362" style="edgeStyle=none;html=1;exitX=0.5;exitY=1;exitDx=0;exitDy=0;entryX=0.25;entryY=0;entryDx=0;entryDy=0;" edge="1" parent="1" source="152" target="65">
                    <mxGeometry relative="1" as="geometry"/>
                </mxCell>
                <mxCell id="152" value="" style="rhombus;whiteSpace=wrap;html=1;" parent="1" vertex="1">
                    <mxGeometry x="775" y="100" width="130" height="130" as="geometry"/>
                </mxCell>
                <mxCell id="371" style="edgeStyle=none;html=1;exitX=0;exitY=0.5;exitDx=0;exitDy=0;entryX=1;entryY=0;entryDx=0;entryDy=0;" edge="1" parent="1" source="154" target="329">
                    <mxGeometry relative="1" as="geometry"/>
                </mxCell>
                <mxCell id="154" value="IdEmpresa" style="ellipse;whiteSpace=wrap;html=1;" parent="1" vertex="1">
                    <mxGeometry x="920" y="-70" width="120" height="80" as="geometry"/>
                </mxCell>
                <mxCell id="372" style="edgeStyle=none;html=1;exitX=0;exitY=0.5;exitDx=0;exitDy=0;entryX=1;entryY=0.5;entryDx=0;entryDy=0;" edge="1" parent="1" source="155" target="329">
                    <mxGeometry relative="1" as="geometry"/>
                </mxCell>
                <mxCell id="155" value="IdHabitacion" style="ellipse;whiteSpace=wrap;html=1;" parent="1" vertex="1">
                    <mxGeometry x="905" y="40" width="120" height="80" as="geometry"/>
                </mxCell>
                <mxCell id="157" value="&lt;span style=&quot;font-family: monospace; font-size: 0px; text-align: start; text-wrap-mode: nowrap;&quot;&gt;%3CmxGraphModel%3E%3Croot%3E%3CmxCell%20id%3D%220%22%2F%3E%3CmxCell%20id%3D%221%22%20parent%3D%220%22%2F%3E%3CmxCell%20id%3D%222%22%20value%3D%22%22%20style%3D%22rhombus%3BwhiteSpace%3Dwrap%3Bhtml%3D1%3B%22%20vertex%3D%221%22%20parent%3D%221%22%3E%3CmxGeometry%20x%3D%22180%22%20y%3D%221110%22%20width%3D%22130%22%20height%3D%22100%22%20as%3D%22geometry%22%2F%3E%3C%2FmxCell%3E%3C%2Froot%3E%3C%2FmxGraphModel%3E&lt;/span&gt;&lt;span style=&quot;color: rgb(0, 0, 0);&quot;&gt;HabitacionEmpresa&lt;/span&gt;" style="rhombus;whiteSpace=wrap;html=1;" parent="1" vertex="1">
                    <mxGeometry x="785" y="115" width="110" height="100" as="geometry"/>
                </mxCell>
                <mxCell id="158" value="" style="shape=image;verticalLabelPosition=bottom;labelBackgroundColor=default;verticalAlign=top;aspect=fixed;imageAspect=0;image=data:image/png,iVBORw0KGgoAAAANSUhEUgAAAyQAAAC6CAYAAABfjomqAAAAAXNSR0IArs4c6QAAAARnQU1BAACxjwv8YQUAAAAJcEhZcwAADsMAAA7DAcdvqGQAAD9bSURBVHhe7Z1fiCzXfed/SoJFskgg6+I46sGXUezF0MpC1jZ92cuGYYwcPfTbwF6MZxyCnzaz8+DBC7dhH/at74OYPAyTffJLZoy5DwP70A9KhJtZ2LvcJjJhiRrM2tEwMC0vQrKCL3EiQ1Z7fnVOdf07VXX+VVX3zPcjWnempur8+f055/zq/OnnptPppwQAAAAAAAAAHfAb6l8AAAAAAAAAaB0EJAAAAAAAAIDOQEACAAAAAAAA6AwEJAAAAAAAAIDOQEACAAAAAAAA6AwEJAAAAAAAAIDOQEACAAAAAAAA6AwEJAAAAAAAAIDOQEACAAAAAAAA6AwEJAAAAAAAAIDOQEACwArxwY8v6bt/8RP6wXvqAgAAAADADee56XT6qfrZmg/e+5De/psP6Z2P1AV6nnpfukPffv0F+py64su7b1/S93/6SfTzV9/4Mn3r1ehHEPPxh/TmDz+khfq1DMiuPd4VQcX3Z59Qb7BJ3/vK8+qqAbEuv9SjPxc+BAAAAABwG3CbIfn4Gf3g8U9o/FY6GGE+ocVPFzT+i/fp3Y/VJR/ee38ZjIB1RNjJX/yEvvv4Q/pAXbkV/MLFZoWsOBh5+Q6NEIwAAAAA4BbhMEPyCf3o8SVNRCDSe/lFeuMbr9BrL6k/caDy1wsZpPDA6sEdj5kSHsyKtEQ63/nis+iNM97ya1jpt+qJDv1s4ebz7ts/oe//4kX6zgPhT+oaAAAAAMBtwHEPyfMiONik7/HgKQ5GmJdeoG892KThy+Lnj57R33nMkrz7thjIinyG38BAFtx8Xnv9y/TnCEYAAAAAcAtxCEiep6+LoONbr5atjX+e/uCL/LdP6P+6BiQff0hv/ZSoN3iFvp4OeAAAAAAAAAA3Cq9N7WXwSUFj5yVWakkYJct8/NK74Tgu2ZIHEjyjn3/0SbIh/uXn6atfvEOvf6X8UIIPPn5Gb/817x1K7ZOIn3tVPMcB5Hvv03ff+qX8m47cEi6pX6LhNzfLA1CVZn6jeLTU6acv0nf+7BV6TcjiB1HZ+C+iTCKg/VZuU7lrvRmjujOqrLX2+vEn9O57H9FbP/slLdIHQ4g03/jGy/TaS/qgPysvkcaPs2nwUso//AaCeQAAAACsB40c+/tBtKn3efq8w4Dogx+/T5OPsFSrSXgQLw8kSA3KGfH7O7MFjUs2oUcD4R/yHqHcpu34uXeeqQsdoAKz5JAFUaZf/Fr9LHGtNxO87iJoefOHfBpXOhhhRNk++iV9X/ztzbdr0owOlyimwc9PfoijgwEAAACwHvzmn/zJn/xX9XMgntHbf/WM3qd/Rf/+jyyP/xWDyv/21jN6cfAF2n31t9RFon/8+T/Q/1z8C73yxTv0b/DWN8s//4r+17u/omd8wMDvly2jS/MJ/d07/0D/uHGH/sMf/y59+48+T2987U70+bcvE13+TKT1T7+if345J2sxgP4v/+NX4ofn6atvfIH+8zdSz33xefrnn/+a3v/t35FleOkF9bfn6aO/EbbAMyJ/+gXaUfe/8drvCOtIkPol+td/8BK9+tvqYh4x+P6rn31CL268RP/ulcQ2eMbjb0UA/LcsA1G2oSjbf4zK9gJtfPY36XO/Hd/rWG/Gpu6MKmupvXLw9N8/joKi3pd69J/+uEc7f6Rkw+X+jf9HHyxEYPKLZ/Tub7yQqS8j5fUJ/Z+fCdn+E6fBdfqCqJN6/h/+ScjkX+j9n/2aNsTvCOwBAAAAsMqEnyF57xm9I/7pDV623KD7Cf3or+Wxp9+2+e4GIPnpIvpCPf3nfXpX3caD6q8/+DJ97/U7hSVBn3v1Dn3vjRejn3/+cXomQOjmb3gJlhjwf7O4f+hz6jCDbk/54mVbm/T1Zdmez9XPpd5M6LorOxc/RQdDiOeWS70iRLm/8gp975t3qCd+W8w+SumuSLSELaqTusDPv/6KPFiCfkn/G7MkAAAAAFhxAgckz+gH0d6BF+kNy6ACS7VWhJc+IwfC6eVOHz+jv+UlQV+6s6L7EjhY8DyhSldvJnTd4/RE4P166cEQgpfu0Btf4h/Kg4ryL14UwdfXygIsAAAAAIDVImhAIo/q5Te/loPDjz+kv5yJgdPKDnjXAN7U/mdfLvl4DtY//rVcXvTZz8jfV47n6XebspvQdY/T+2L9UqrXfr86qPi9kk3vAAAAAADrRLCAhDf9fj86qpeXtaiLRsRLWF6k76zcF/vdZPh0pvfpzceX2eVdfGKXuiPmAzUgvhkDYPN6M6HrbpWemrVxwudZAAAAAIAWCRKQfPDe+9GxvPyWXr+EpIJ4CQv9kr6fHiCmPlHagnfeiq9d0o88vnTx1sMnPAkZytOZpGxvBbe13gAAAAAAK4x3QBIFI7xvRAQjI8xwrAFyn8+C+Hs6hM6+mVvepTZTp/ncjZgZsa83E7rucXpGezvU8i4AAAAAgJuMV0ASfTeDGOTx0aUcjDhtRn/pDn0vPTDUfEYDOYjjL5qT1yq+QA9Uo05B4xOevsVfBGgiR7X8552/b/J7Rjy+2d8El3ozoetetnlew7t/L0/3+sOqze8AAAAAAGuOc0Aivy36kygYiY4uVdfBahPvYSjjA91b+Zeep9/jf3/6YelSOZ4pe7PiiwWriGcNSgf9Hz+jH0RH77rjVG8mdN1feoH+kI/k/emi+osLRZq8J4tefoH+AME3AAAAAG4wTgHJMhiJvgPBfJkWP8d7QN78cdg37U2lexNZDv7fep/eTQ+wxaD/R2/LGa8iL9Dr0SzVJzT54aUYSKcG92Kg/656rjig/wx9ngffH31Iby+fEfenn2defYG+yv+KQTp/O3kysJdpvxl9Q7q65IhbvRnXupeRHMn7zlsiPWGzH2TKozbdq/J89Ws4BhsAAAAAN5vnptPpp+pnM/hbpktOJCoiv0wuXl717ts/UW9979DogflAKw6AeMmW7gQv13RvBLE++Nhfw+BwKS8dX7pDX/3Fh/TOZ4vpVT7HezN4OVROP7HuMuj09N779N2yoODlF+k73/gMvSXqSbnv3pBl4i9FrD/a2LXejFXdVV3K7JXRyiUDp/mKeD6pa0ydP0Qou8jLCwAAAABg1QhyypYxn5UDo94Xnw8bNDSV7g3ltdc36TuDF6kXfZu3Qgz6h2JQzYPxz6tLeV57/cs0eiP3nBg4R3uIom8xV5dSfO4rmzTivNTv0UD7a5olfq++ItIWQUGmTHKgP3rg+T0qCtd6My51r4Ll8uff7NHwSyINdU2SThOBBAAAAABuPvYzJAAAAAAAAAAQiHZnSAAAAAAAAAAgBQISAAAAAAAAQGcgIAEAAAAAAAB0BgISAAAAAAAAQGcgIAEAAAAAAAB0BgISAAAAAAAAQGcgIAEAAAAAAAB0BgISAAAAAAAAQGcgIAEAAAAAAAB0BgISAAAAAAAAQGcgIAEAAAAAAAB0BgISAAAAAAAAQGcgIAEAAAAAAAB0BgISAAAAAAAAQGcgIAEAAAAAAAB0BgISAAAAAAAAQGcgIAEAAAAAAAB0BgKSDlicH9D29jYdzdSFBpgdbYs8jqjBLFaTxTkdCNkenC/UBdA1bdj7TcNLZh4+sI66silz0/VrIv111Eln+Lb/s6NI1qH6j1XQna4Mq2JTIcvRRJ1s0uxKpqb5rsOY8EYEJFLQ2c+tHpCKRnU06dP+6SEN1CUAAFg9ZnTEbXbbvTjIAT1EMhhNiIZjOt7pqWsA+LAifrUmY8L1DkjU25DR5T6dTqc0XX5Oaeti75YGJbJRHY6PCW0qAAC0R2/nOOqDDgP2+k2kCYrMjkY06YuxREBBr6ruYFPh6Uqm9fmuz5hwjQMSIeS9E5pzA3K8Q1k592jneHpL33IM6BANDQAAAGDM4HBK08JYAoB1Z33GhG4ByUIEAwfx8qgDOjqfUdtzEYvzM5qIf4e75g1IcWlXcT2dXI93QDy5kr1fXqtnQedL2aiP43SdaVnS92XQrIctTzORReb6wXmJbuvrmeSVvjcrcxOdlKOmQ+NPpZzt9VJffrM06+3IXZZ/GaWtSzPON/c3ZRPJR/+sOfZy1SHrJ2Urf07S0yfnLrP4rnq95O/hT9E+k3zM0gyrg2Z9oBqz9MpkIq+PonacJqPlPZmZbUtZZW3HRq6msineV2xfE5stt40SO9S0t/k0JfXlNbVLIz0Ismnwp+gLeWQZbPzaJh8z20/kkJZZKk1LG5Pl09+T/5tOd9n6ZdNJ6yyDpi+PcGxLiuXKyXL5yaVnkF+tvE1wrFdMXL/KZy3zqEszL1Op5xDtm12bk6bOlxJd5e+tlkVT2AckvExqTwh5rn6nOU1ORrRX0hg0w4KeXnABhnTfKOqTzjaaDGksIkWe3uJlXfv9CY20gp/Tyd42nd09Td3L1+qcivPZoxNKLSE73ac+G6OzfFzLUkU+zbGQpJDFwVEUaGauz09or9BJ2tST89qji604zXgNo61O8vDzaopdPT8mkT/Pmqk7Enz0UlX++jTZyeXaTXXPdJeuMrrzk+W37w+j6xdP8wKb0RNuCftbdE9F7FGD8+S+epY/sS25Nj4+ctVxSWfC/vaudpdlHIvqTUb5xtZPZqw/M72EbzPC6oDL2IYP6DBLr0rO0RvpqO0RDMfq78nMtq2s2E6ytiN1Ul89U9lo7hPl3zx5VKO7vG3Ytrd5bHSZz7tol3V6kPn5tNU2fm2aD99ravsM11nfDtj648Cizc1T3+6YE7YtkW/Rs2mJy879h17eJvjWi+3qET3MPevXDru0LWHaN9c2x8aXZF3q+q42sA5IZo9LHH5yZmQsYbimKy5E/y5tyAuVyNmU/IYeXtbFxiIE/6jYAfT3T1MNsrh3l81qQk8qNBStQRUpjtPTvr0desie7SEfl7LUkU1zQA+4jPMJXYoGpHj9gtJtr3U9RafxcJmmxEUnaWQZxPMPkzJwA8AdXR5vvWjKb5am6qCGu6m1m9zwJ3X2luXgvniaVfQ0K6/FtRgGiNu37mXkM83M28a2pOtc6/GWa4G5+E80vKkyDg5lgz5JGbu3zAz00lSbEVIHUg4t+UAOs/Tq5VyFtax4cFpjOzpMZaOTt6xP/dpsn/Y2j60uffsP37ba1K9t8tHposz2l2jacSd/tGhzs/j5Q56QbUmexfkjOhFjrPQKFBd/zMvbBN96NdIOO7YtVZiUwbXNsfVZ3zYiFJYBiXIoLf5O0AxqNkX71mJA8mXHlQhxsmxu5G7euCvUS3R5XVbHBV1zazS8X2hcehub4v9zuspnYoh9WeoppKkou55gX8/isjo3nSSoMmieHzzYj2ST4K8XXfnN0tygu1yY0gFfCFnqBzGLpxfi6SHt1nUIypbs8ZerjmL9Yhk+Ea0PE0Jm9Xppp81QOOlAyaElH8himl6dnB2okFW97egwrUu5vE1wb2/z2OvS2S4jfNtqiYlfm+dTroui7ScUy1BCrT+6trkN+EMep7Ykz4weczTS36cHeSPLY+WPHljUq4l22K1tcSBTBtc2x95n/dqIcKzxpnZT1GzK5obWOTYiq7okf7mrfHjafHs7++GjBAVtKzcc6U4uRD19dVL9fJYm9GKaZo92HnIHOY+mRIvrMsOUrXdvK8ojeSGgGiTNoCUcTchVR4+icdaSEPka6qXxNsOH6jJmCa0r0/Tq5Nw0edvRYVoXG3n7UhUghtZlHdX1dveFEr82yqdNXehxa3O79gczlm/XM2/lQRaTtsUXVztvymebxzIgUdGVlj5t2YVxHqjo1ODNTOuk1grmP8mU2A1gFep5eS26AUOaKK9Jmr0dOuZr0VoC1RHl14j7lq13j7aEP8zjUcziKcm+sdg1ZjfmiU/pmmtDurIDb5kZ6KUhguqgSx8IZf8VBLfXMrqyY1fWrbxNYGP7FTjZmEWbmyFwuxPeP9TsSGZZWUJb/thGPq21LRWsQhlWCesZktIp0RIDboYe3ePWwGaNW0njdS1DSbKeOS8jUCO58oSop7NOVEBqQxN6sUlzcBgNFk6jqf4Tepy2W++yKX9Q08fx0oFs3yhP6hDtHSUbKsWHN8OqO5xoQq4Z1LR1nlD5OujFvc0IqYMV8AGb9KrkrCWErOIlDwZ7DU3rElqGrrRdjpL8fHzBxq+z+TjYvhYfGzNpcyuw9oc8zbTnyz0LhbVaDfUfBdrIp+W2RYtFGVx9PbjPNo/9ki2O8E/HNFxKrU/D/XHQLxMyQU6ZivbgrO7tQrxmTrdRMN5kFmJpS1U+zVK2dnhWvuHHgxD19NWJmi7VPF88dKEJvbinKXUVE65s0h84QC9bOqCmcYO9OGhCrty/53pm9eYxqU8z+ZrrxafNCKmDLn3APb2snKuwl1Wp7VQueTCtS3xf17PyoXVZR1V+5r7g59f5fGxsvwo/f6xvc+vJ+4N5Xx66PRcszukskrMuzQby09JGPm21LVWYlMG1zQnjs13gtoekN6DD4ziqO6bDnYGjUjzgwIinPbXHJMroMz4CUc7qzHMnC/A96rSSQMHUMp/8cWnRN8o3eISaOvUjHZzxkXJqSXFwQtTTVyfL51OvlqI6X/bF9SxN6MUozUL6on6yxV++SQtWNrWEYPLkcdTQFZcO6DbhzeSXi6rflkR5C/+pWUrQhFyjtfHLsxSFvB5x+bJv7LzztdFL0DbDQgcGLMvYgQ8YpWcgZ5GS7DwLm0NtZSXqfFlvOzpMZSPv4+N60zbBx2u2uxcgtC4lZXpI5efjCzZ+bZDP8l4D2y/H0x9r29wcJv5g3JeHbUsYGcyV6TN8fnrayKe9tqXcr8zK4NrmBPHZPJH91o8LfFjvTe3RtOcp7ZMIStLr8LbV+dex0KN1m/n74rOd3Y7c0xLnE531nCrP3hXthsyngAgQeaqPgzOV54jGDUynKkLU01cn/DzXL7W5MzpH+3iXCu9gm9CLSZp8z5hSfxf1m4vGIJ1nsLLFSwgmUYNT7Bt76si/dD5ndJdnO9Ud1jQg1+FYfZ9AlFYsr9wRh7752uglaJsRWAdcxq58wCQ9EzkL5BGaSTqy37eV1SbtHhvYjg5T2UT3ifxT7Sx/8dnl/sMG3+ZqCK1LhV4Pgjg/D1+w8muTfPheU9svxdcf69rcHFzmWn8w7ctDt+fqzXkmPfmRX8LXQP+hpY18WmxbBF7tW+QT4pptmxPAZ7vguel0+qn6GQAARN90FJ3Yw4MIlxcpLvDmvr2Teat5AgCaBX4NwA2hhXHBes+QAAACM6MjXh8wHGMAAQAAANx62hkXICABACyRZ9APHfdIAAAAAOAm0da4AAEJAGBJb+eYpiu8xhQAAAAA7dHWuAB7SAAAAAAAAACdgRkSAAAAAAAAQGcgIAEAAAAAAAB0BgISAAAAAAAAQGcgIAEAAAAAAAB0BgISAAAAAAAAQGcgIAEAAAAAAAB0BgISAAAAAAAAQGcgIAEAAAAAAAB0xo0PSBbnB7S9vU1HM3WhAWZH2yKPI2owi9VjcU4HQq4H5wt1YX1pw0bAGmBo06vi76Z2C/teD6Anya2Qg0//OTuK5HMT+l4A0mCGxBfROIwmfdo/bf5r9QEAHQN/75AZHYmB2HbQkWqoNJsoGwAA3B4QkHghOqHRhIbjY9rpqUsAgBvKevp7b+eYptMpHSKCAmD9GRxG/nyMQQe4YSAg8WJAh+joAbglwN8BAACAJljzgGRB5we8njv1cZgyl2tWD4iXZMr14fFHXkuTvjeDZl1nebrJ+vPM9YNzUSMd9fVM8krfm13nni1D8e/lqOUI8adSxm46sdFBjHl9imUqW38ryxHfV5a3WR1N65Ggk7O8VmZXGUrXFrvppL78bulKuq6rjU3nZcGfat+R9+t1XvW3BB/ZZoltOv14ub+ZtU3yeXlvnH78KSumiQyTcqXrf0R/GT07ognfNBmp63n928lMlqcuzfpyG6Wj7DX51OlfT9tyL5dePt1sfZL01IWYUr/Vk61jucxM6sjUl9lGtg20NSZ2EridB2BVWOOAhJ18j05on06n02gKc3q6T33uEJyccE4ne9t0dvdUpjU9pf0+X6tulOvJpzumoei6RgdHdCQaj8z1+QntFYISm3pyXnt0sRWnGa9zlw3iaDKkcZxGVD9RjopGXsLPis62n+Q/JpH33onILY+vTkx1YFMfTZmErDdPHhXqPRlt0yN6mEqvLO/6OnLHJ/caxHnu0lWlLZXIOR7oOOOmk/ryu6Ur6bquJfmX2rS97wzuD8X/53TxNH/DjJ5wJftbdK90xYWPbG3wbZsu6Uzct3e1q+4TchTVZj/KFtNWhsV27NuHqhz85+FYXU8vW7GX2cAozfpy16UTDYKf3F9eT9qWura3jPbkXjYZaN++2WPeHpvV0azMNrIN29b42YlpeQBYXdY2IJkd8eBFNELHO7Ts13s79HC/L1qPM6eGvr9/muqMerSzy13MhJ54+nM23QE94DLOJ3QpGv7i9QtKj2Gs6ykavofLNCWL8zORRn4jrqjfMXeiosF7VDYzE+cvnn2Y5M8dMDfSeULoxEQHNvXRlZ9lfTgt7gMwydusjmrQOdxN5cF5VnXw5nK2wU0n9eX30XXXdbXJ39l3Bg/EYEK488ljIc0UsyciPWFrW/eSMubwka0tPm2TuCD+EwOg1Bq2waEcmE9STuMkQ007VkUTMvNpN9NEAUtmnV/ctugCVhO6lrt9++ZC2L7AtMxmsm2irfGxkzbbDACaYk0DkgVdX4p/hvcLDWBvY1P8f05X1/J3GzY3lq4s2bgrmhKiy2s/by6kqyi7nmBfz+FuqkGKWNDTizmPgDRvZAckX+RekV5cKn/Ns4MH+5FsEsLopF4HNvUpL78Ok7zN6rhBd/lB447ARs42uOqkrvw+uu66rjb5+/hOj+5tRULMBrRyVES7pYM+H9na4942SYrtTWw7T1Qg5ibDYrpVNCEzH90boNoWV7qVu2375kbYvsC8zCayDd/WlGBkJ+22GQA0xZoGJNd0Jdoh4unI7dR6Sf6MuMP3DyK6I914hKinSmNzQ9vRbEQt7SXpk6l+NktbOrGpj035TTCtY492HnKHMydeElO19lkSupwxrjqpK79rukzXdbXJv/reat8RUry3FQ0mkjer8Vva4sAhwUe2TWMysOlRNAZa4idDM5qQWRvlDkmbcrdt35rCpo4+ZS6RbdC2xgfT8gCw2qz3pvbUet38J5nqvQF0Xc/LazJuzm6DTkzq2NuhY74Wzc2rTrD00IKGcdGJSflXUdemZbKxaVd690hOkqg3q2q51vB+eTiy5Db4UWhWWGb5TdL6/UprxCq1b6aELnMDbY2XnaDNAGvOegckbQwqVoEQ9SxJ41q+wiH9Cg01VW1DWzqxqU/oMtmkp86MP43W4J/Q4/hleQYl56Zk55NuVfmd0u26ruFsutp3mOyyrXi5lkk80ph8GkctH8njLEMLmpCZd7nlyUdiXEnJZmrx4Q3H6o4wdCR3o/atYWzraF1mO9km2LQ1AeykCfsHoEXWNCCJ14fmN1k2T9maTDnYCE2IelalUbeERE1Va56dPc6/uWlLJzb1ie/1WOudwb2O0m7KsJGzjQ2G00m2/D7pdl3XUDZtsvxK5LazqzbEHhndH1JnbZDe6BuxeEq8rL/og+4yrKcJmYUqt1pOk9lM7c9qyD0h376Z+60PfnXMlznGT7ZpbNoaHztpwv4BaJ+1nSGRm8J42jV3bN/inA5qzk/3YnBfDjDOkqleeZyg+iUwIeq5TCNzqgq/kVEnc2RO9siyfDb1Gimq72W/8OamLZ3Y1Efey0eZpu/lIxLd1j0b1bFQX1G2s6h3LH07XipnnV1Z2KCTTgzK75Suouu6luZfZdMOviNRg4XJRNzPY5q6+83rsRLwuvXlsaJCLo94oNWn/Qd5H/SRYUwsy3hzcYK7zAzSNCp3WTrqLXnmumh/fJdstSr3HAbtQ1v9pHEdTcocYyPbYG2Nn52YlkdkLpeC4ShgsIKs75KtaD1ofN54es3lFe0GPn4wy4AOeRqVz+VXeY5o3MAUvCJEPeM0KCnz9vLM8po0+Nn4PHP1bPT9BMe7VHi/1JZObOoT3TuW36OwvHdEl/sP3d5YmtSR7xlT6u+ibHPROVbJgJ/RyVlrVxY2aFLePCbld0k3puu6luVfZdMuvqOQ30nCGC7X8pFtywzHU/m9CrFcIjvJHakdQIYx8gjWRC7LcZWHzGrTNCy3Pp2eOoI2Xa4zunvK19xpW+4ZON3a9q2lftK0jkZllljJNlhb42knpuUBYIV5bjqdfqp+BgCsGvyGSy4svvkbE29qXVW95rzp1PWt9IrBm2/3TubR4O2GVGktgNybY21ky7Mco0nue1oAWH/We1M7AACsOIunF9GyC6PTtQAAwADT7woCYF1AQAIAAI2hvryNDJdrAQBABfJggD7d3ZC/A3BTQEACAABNMXtMJ3J6BOu4AQDOxN9RwgcDDMe5PS0A3ACwhwQAAAAAAADQGZghAQAAAAAAAHQGAhIAAAAAAABAZyAgAQAAAAAAAHQGAhIAAAAAAABAZyAgAQAAAAAAAHQGAhIAAAAAAABAZyAgAQAAAAAAAHQGAhIAAAAAAABAZyAgAQAAAAAAAHTGjQ9IFucHtL29TUczdcERXTqh0r4VLM7pQMjq4HyhLlgyO4pk7fw8CMiMjoQuWB/Rp0UHgM9pWBff8G0DGkfZ9cE5GZVQUx/YJwAAuLG+AYnqDJaDosznSHQtNwnVUd7aXk7UfzQhGo7peKenroGumB2NaEJDGk+nNOXP4UD9JRQ3zd5XuT63vW1JWNr18Q6FbWUgYwAAqGN9A5LrK5qLf/r7p3JQlPkcUughko7eznGUX/DxGMgQDRT6+3QKQa8AM3oiYkMa3m/Fx/LA5zQMDiOZIFj3YHZEo0mf9k/9+g7YJwAAuIE9JGDlGRyKIDP4W0sAAFBEQd0xIaYDAIBueG46nX6qfjZnMaOjRyOa8BQF9Wm4v0sPdgbtDhh53fRoEs2QVL0Z5DW9eydzGo7r3lot6Pxgj8StS9Jp69IpT7uYFi83Si9tkc8S7Z8e08bjbeIVSRJ+S5d0jLOj9N8SkrLV56VD5r9J4+khbah6xJTJqlgWXraje6PISxR4+YOCy/Pgmg5khXMy5UsPiR7FdUilqXSckJWNDut6meZRuC8hk65BerX1LhDOnqqpzkdvi+n0TW2xeF9sz3X2LuuZ+Jy8X19H3d/MbViP7fN19YnwtRn1fCbNCBd92pdNj1kbIDG1Gx3ltsTU+5pp3jZtWt4+oz9lyOvK1y4BAGDdsZ8h4b0be3EwwsxpcjKivbVeH8udjeiUaJ9OoyVf/BnT5skjst9/qUnrdJ/6k5FmDfGcTva26exuvOzslPb7fC3ZAxPNDoiyDPkX7gRVmrIzs8lLxyWdHWzT3tXuMt2xyGgyym/K5Hy4w+ROUuUTlXVCo+2DnIxUx81LrOI0SZRHdNzpPj+B67tHF1uxDGQnzB309pP76lqcH9+bz0+HWb2M80gN+OR9Sh/RoCEJRuzKrK93kbD2VE59PnpbjAenpuXU3JfytWp7LzK4z3fO6eJpXsBqaVl/i+4ty2dqwzrcnq+rTzM2w7jq07VsaThv0zagvpzlaJ5N2VJCmdxM87apT5Z6e+a0fewSAABuBtYByexxSSM8OVvbxlNuZuzT/sP0sqABHTpM4Ws3RvZ26OF+Xyuj7JuyHu3sctc1oSd1fbHANq8ic/Gf6GRTbwMHh7LznKQKsDg/k/LJrK8WZT3me0Vn/yg5lUYnS+6UOSAoRXT0D3OCjjryzFvKWDa6wWces3qZ5bGg8zMxss2UcUAPWMYi8LlOFcW6zJp652nLnnxtyfR5nX2wPF18LWJwP9Lr/OLp0gYjFtdCO0IeW/eifGxsWIfv82U0YTOMrz4ZVx/U6ZjT0rUBPuW0siWN3EzztqmPLU3ZFQAArBuWAYl666jFZKAYnvnJXuGUrdoXaxkWdC1HLupNqg8qLc2G397Gpvj/nK6u5e8xmxu5TDfuiu5JDHXTI10t9nnpGO6mO3Nmg+5yASZPhLaZBT29ECGoVj4Dki+or0hmVS7LwYP9qF46imUoQcnGhPp6lWCYh7GMK9Krr3db9uRrS6bPl9uHOyo4nF9QuvlZPL0QuQ5pNxqE2tiwDt/nLfGyGcZXnxXU+ke5jottgE857WypKDfTvG3qY0vLdgUAACvM2m9qT5bRJJ/MS71arumKp3w2N8wGxZWotHjKPxckxeuw6wMNU5rKq0dRf7ykWj4b0Sg/nikIKcvQ5Ovlx0KOUujuhvy9GdqyJ998TJ9vxj5697aEJrKzWtFAbznYrM43a8M6fJ9vG199+mCjY59y2uSjwzRv33yqqE579ewKAACawzIgUW9ttPRpy+RV1W0gtVY4/0mW0wSizbxMubwWQ0J/eINoZqBgsGbblvo81DKV+Qk9Xk6tzOgx74LVvNlspMxt6dg3n65ssXePtsTYbR6/Tl88JRmPWL2Z6IzG7DyAPpzLZtMGdNmGmeYdqE0DAACgx3qGpHSaerjrtgZ8VQjZ4bTZeQXPSy1RyFOSz7V8xUdypZBaFuUNn3yzrU7HSQ0SeMOpusOefL1M84j3kPTpchQPzEY04YFMeu15I2VWtGVPvvmYPh+8Pj26xxGJWo4XL9cqxCNGNlyB7/MFGrQZxkvOrmVzaAN8yulrS7XPh2rTKghuVwAAsH7YL9nq7dDx6ZiGy0aaj/0dr/GX1oVcqxunlV3P3gxh8kpv8o5Qb5eT5S5V+eS/JE8ti9LcW3oYgha1lMEjyK2vl2ke8r7+1kM6jgdl/CnYu3+Zi7RlT775mD4f3xd+XbxctsWb9/PLtRgbG9bh+3wZTdgM46tPxrVsNm2ATzl9bck071Btmo6m7AoAANYPtz0kvQEdHseDs2M6bPs7SAIjZ30mNDpIn2jCxzHaH7so0+JjJnNHrfJxydsmx6/qUB1XbkN2kLx4DfXyFIAFnT/iTrZP+w9Sw7k4n8yJL/wGVZ1SkxqcL+9N1jcRHx86uuyL66boNqALfexZDABq62Wah7xPd3jCdsZeApRZQzP2VMQ3H9Pn5X11vqa390rUsq3Jk8fRQDq/XGtZPgMb1uH3fFl9mrEZxlyf4cu2zNugDTAvZxH5rHu7bZq3TX30lNvzMm1HuwQAgJuC2xcjrgLcaZR2jnyMojz6kddA67+8MA93ZNwJJKSPUNWlU542dyh72S/b4s4l9b0Bpc+qeokK5NZPZ8uXPFefl450/vef8Dn46g+lz2ry6e/TaWbZkiKnGynH66j8lzUyTcjrg3W6S1d72TTy2NXLLI8ozYutXF3VsxkZWKRXWm8dTdiTDhNbUnXkJWuFwpvaYl5OsY2ky5e9J65Xleziv+nzZCxsWIvP8/r6BLEZmy9GNNCHbdm0GLYBEtNy6siXMc7LQG4Rhnl7t2llMmZ87RIAANaf9Q1IgBf1HfV6ErxearCnS0/mxWN9x+/QACAEpQEJAAAAsB6s/bG/ADSJPN5Xj9x0CsBqUPgOGgAAAGBNQEACQAVyszTR5Cy9xlswO5LLwYJvSAbAjlm0+7np78QBAAAAmgMBCQBV8Kly0zEN5ye0l97QrpZxFfdRANAOvGSQbZED4+EYywYBAACsL9hDAgAAAAAAAOgMzJAAAAAAAAAAOgMBCQAAAAAAAKAzEJAAAAAAAAAAOgMBCQAAAAAAAKAzEJAAAAAAAAAAOgMBCQAAAAAAAKAzEJAAAAAAAAAAOgMBCQAAAAAAAKAzEJAAAAAAAAAAOuPGBySL8wPa3t6mo5m6AGrxktninA7EswfnC3XBnHXUlU2Zm6xfU2mvo046w8P2I2ZHkaydn8+xCrrTlWFVbKqZcszoSKTJ6Uaf2+g4vn4AVotSfSpbPzgnaNoCJc9M2xO1/UdCoreb9Q1IUkotfqBYYIJqUG/joGGlgB4iGYwmRMMxHe/01DWwbsyORjShIY2nU5ry53Cg/hIK+ApYDZa2frxDaLFMWdD5oxOai3Z+erpPl6MD4jhvcX1J1L9LG+qu28r6BiTXVzQX//T3T2XDn/kcUuhuAIBVprdzHNl+6PFPU+mCLFHn3t+n04CCXlXd3VybmtETEVPS8D76H3CzmR3RaNKn/VOMtVzo3xWhR2+Hjk+36GJvm/ZO5jTcRWCHPSQAANAxg8MpTfGmEQCwDgwOaTo9Jkzm2tKjneNpMgvOQUn0Eh0v/Ri3gGQxo6ODeHnUAR2dz9Z6DaFcSyyXecXriuOPfmZ8QefL+qtP7kaZDk/Hpe9NlpLNjlLPRvepP6TI3sOf4lK0JB+zNPnNRjbNkvuMUMsH4k/lMoJ6mdlhll6ZTOR1nnIWTEbLezLrZC1llbUdG7mayqZ4X1zeOO/0Y+W2UWKHmrXAunRNymtql0Z6EGTT4E/9skxZBhu/tsnHzPYTOaRllkrT0sZk+fT35P+m0122ftl00jrLoMpYWEPu2JYUy5WT5fKTS88gv1p5G2Jrb/L+vB2nymcsq3If1+eRbwM06Wr0Vysn4/La9AFxHdIfE7nq89b+zdEms+XSPVPf5kU45C91IeUQ+0b8KROniRzdfMGmXcuVz1H2OpKy5+ualD9zvXQfi5ne6vVvgEH9y+tVnqeJrsvwebYL7AMS3ruxJxpFXi8VMafJyYj2yjxnbbikM2G4e1e7UbTKn/GQ2/18o8AOu0cntE+n6j5eC9jnDqIggzmd7O3RxVa8rExOb7KRyOlO9fx0l6720oYiG4XRJLUWeXpK+/0JjbSGy/ls09ndOB++l69ljS8yzif31T3p+1wckMso7ICXmaj0xiRksHcSLaXLYiMzE8zSq5Jz9EZ6Oiah4mjdvvx78ubCVlZsJ1nbkTqpr56pbDT3ifJvnjyq0V3eNrjOwo4OjqKXCpnr8xPaq92gaKPLfN5Fu6zTg8zPxhfy2Pi1aT58r6ntM1xnfTtg64+D+yypOV08zd+glgv1t+heyVvL+nbHnLBtyYAOl+nEaYnLqbrY5aeXtxlu9qa3Y/kG2bzsGt9K+Xi9r9iil5NdeW36AAe5Wti7q03yc/X9sVl/4+4TTbRTjF7Hemz0mcWv7mXw8z59l7nefNtFu/rn6xXfm8/TzWckPs92h3VAMntcYpyTs5WtpBlz8Z8w3NS82eBQNv6TJ2njFQ4rrmY2cvV26CH3oDoZCOd+mOkw4nXGu6npTu6Qk4ZicX4m8mAHSTcePNXH5RGG+6g4aOS9NEnHJO7djUpOqaLLDi0zLxjfp2vwq5FyEGV8mMiB0+dGNI+1zGowS69ezlVYy4ob8Rrb0WEqG528ZX3qp82ztjGgB5z2fEKXopMqXr+gKlOw1aWJXVbh4gtZzPzaJh+dLspsf0mhHZDPWPvj4H5U9vnF02y9F9diSCOy2bq3LFMWP3/IE7ItybM4f0QnopNJr6l28ce8vE3wt7cipmX38XFnPOzSxg+c5Tp4IAZRIueTx8KCU8yeiPSy9u5mk/V+YdrmueUfE76dWmLoC07tmsKv7uX49F1megvTLtrW36Rf9GmLmmjH2sAyIFHK0+JneK7MT/ZyU1Imb6X1FDcVbdBdYbuiRVCN4YKuudfXbFrsbWyK/8/p6lr+HlOeZnHwJlnQ0wvRG2vfdA5IvjC6olw2tLmRu3njrjBHosvrGp2o++xQctCUcfBgP5eevcyqMU2vTs4OVMiq3nZ0mNalXN4mFGxDUXa9HHtdOttlhJsv5DHxa/N8ynVRtP2EYhlKqPVHfee7eHohpD+k3dKBRwP+kMepLckzo8ccjfT36UHeyPJY+aMJYezNiELZ/XzcFXe7tPEDH7n26N4Wp5YdrM3kKLLC3hW1NlnfH9u2eRksfCJsO5VgpmO3dq0Si7qX4d53meqtwXaxov71/aKPz7TYjgVm7Te1c6SZTJPJTyZQ9aJHke0uuaYroef0+t3lh4/sFNQPtESU+pAdXESpe/xsfvpM5bG5oW1ENiLvuSSj8VxjVJcxSwiZpTFNr07OTZO3HR2mdbGRty9VHWxoXdZRXW93Xyjxa6N82tSFnt69rciukxdAqgPSdL4JXfuDGcs3e6m3tO3RlL2Z0L1d2WFTXj+5SnsXzc4yIonfalfZuymG/XFrbV4an3bKlnWzPx3pvstUb6vaLvroukk7aRbLgERFV1r6tFUMx24mqfW7+U8yDVdBT52sEM2FKkdo6cuF8pvmTNaHlnJ5bV5mX5nlMUnPU85BZVVFaNk0zbqVtwlsbL8CJxvr3SN+aTyPe9/FU5LxSM3wLHC7E94/1OxIZvlEQmv+2ADrVnbj8gbyg0qUvS9nCtRyLZ29u/mTgV8YtnnrbKMRHvpcybq3ME6IWXvdrwDWMySl03clnch6o6b98oRqhKOj86Z0Gi3BOKHHqSnpsjyuZehL1qttRGp82oTwEUo2b4kPb/JSd5ijpjltCN1x2aRXJWctIWQVT4EbfNmRaV1Cy9CVtstRkp+PL9j4dTYfB9vX4mNjahmLGqDFy7Xq4pEl1v6QJ2RbkrBcw15Yq9VMfqUEtTfLsnfu46blDdcH1Ms1u2wrXq6VtfcANuLQHyc0YaM+7ZQtPu1ay/5pg40/ObeLDdbfR9eN2Emz2C/Z4mjydEzDpaT7NNwfB/1Cr64obEBWbx6TqeF4/V31xl9b5JrGmKo8fKaq1TRekMBRTSVrylg89CC0zNzTy8q5CntZldpO5RS4aV3i+7pe9xlal3VU5WfuC35+nc/Hxvar8PNHuYyFB2gmy7X05P2hbE28HACmCdmWKBbndBbJWZdmA/lpCWNvWUzL7u/j5vqrwrS8ofoAM7n2dnZFCMK+fFRyfzgbMe+P0/jnH7adssWnXWvLP20w1VsR83FCTBP199F1k3bSLG57SHoDOjyOI8FjOtwZVAy61gheb7jcES+iXv6Kf9Htp9/YyRkintbLHdHGxyGbnPFcuE/kI3vi5RufZR6ZkxA4ClenRjgFf/HmrfQm6xkdibC+urHRsyxj6jVCdHzeZV9cz+ItsxxG6RnIWaQkHTcjE8ZWVqLOl/W2o8NUNvI+PvIwbRN8tF+7a15D61JSpodUfj6+YOPXBvks7zWw/XI8/VEtY5k8eRx1hrXLtUz8QZ3gNTlLZCCPxFS/LAnbljBy0FOmz/D5lRHE3jKYl13mXefj5b5irr8qbMtr5gf+co3rPRH36+zd0UYM/GJZ9so2L4CNBm6nbLHRZxaLukcyc1sSZYuR3kzaxdoyB9C9Bh9dN2knTbK+m9rVqQS6U7ZcNyYNx+rc7SiNPTqZC8Xlj1yM1hvG5zmn8ty7ol2To+L4+TGlno3zST0b50EntJe+LzpP2+44uoSeOvItXe4zusuzXeoOK6KZMmH0qU1j0bnax7tUeL/gK7M8JumZyFkgj1ZM0pH9ga2sNmlXBOi1tqPDVDbRfSL/edomRnS5/7Ddt1KhdanQ60EQ5+fhC1Z+bZIP32tq+6X4+mO8bIsHaOkguwQuc60/DOiQ65WysZGQXHHpQeC2RHTe0Vu7THryI7/ML3R+FQSwtywWZY/yFtdrfLzUV4z1V4VleU39IIBc5XeSMDp7d7QRE7+Iy17Z5vnbaPB2yhYbfWZo0T9tMNGbif5raaj+Prpu0k4a5LnpdPqp+vnWwpuR9k7mUYOwooEjAMAS+DUANwh+U81vnXmj8g1y6FvVTvG3mY8m61XXdSzzmrK+MyQAAAAAuBXIwxuofnkiWFFmdMTrB0VAuT4D+3Us8/qCgAQAAAAAK4w6vIEMlieClUR+x9BwZfcv6FjHMq8zCEgAAAAAsLrMHhN/Rc2qng4E6untHNN0hfcv6FjHMq8z2EMCAAAAAAAA6AzMkAAAAAAAAAA6AwEJAAAAAAAAoDMQkAAAAAAAAAA6AwEJAAAAAAAAoDMQkAAAAAAAAAA6AwEJAAAAAAAAoDMQkAAAAAAAAAA6AwEJAAAAAAAAoDMQkICVZXF+QNvb23Q0UxcEumuNsjinA5HfwflCXWiIRvKZ0ZFIk+UVfQILrXVdBGAdyxzaNpqQgU2aXenAJN/ZEfvKkfCc1aENeXWlE2BPE7qySbMrWzHNdxV9eDVQ44GDc0p6kuIYocu2AAEJADeU2dGIJjSk8XRKU/4cDtRfbjqqke2iRQUOrIi+Zkc0mvRp//SQbounABAG+PCqsxwPHO9QL39tRcYICEjAWtHbOY4c59aMrZ2Z0ZOJ+Gd4Hw1zCthP93Slg+p8xYBqJLrm8THtxL31igCbBavEavovs7o+3DnaQE0/RuiyvUFAAgAA4JYzoEMM+gFYY+DDpQwORZCx+oHa2gYkcp3bAZ0vFnR+oNa/pdcNiohwuS4u+vC96m+KJA2+vfreiEKaySc/U5lNjz/1axpleeR98Tq++KOfCU3XXX1yN9bJyaTeJnXxl2XJfTliuchqqmniwieXlnFeufRqpp9ddCyxyadex3lkuXgqVjAZqefSdTZNs3hf2T6GrL366dzIfkrQ1z0pd9Z+JPKajd/ly8gfve7t69KsbeQJqbeYujTTOqjTV4Rx/tX2ms43jYku5bMyX3udSkxtJo+u3PblMfdlJp1+BqWL/LMmZXCpvyxHeN9M6peWi748NrJI32ukF0vfypOVSZg86tKM/x7LX9YzhA+7+S9jp/P8/dXySDBrb6vSlmWwsWezPHX3VclOrzNZ1nI5V+cR4WnPaz5DMqeTvT262DqNppimUzkdFQn7yX11jT+ntN/ne3XC4evbdHY3TiO+N2fQLOjRhPr78X1jGkZ/kOvvkqhcDihGk9S6vCjNCY2MlHNJZ0Lpe1e76tkpjUVGk1HeQDifPTqhfTqN8zndpz4bV8GSyuUkp/HU89NdusrU27YuZrK0008V8o1INh1xub9F99SbAPO8uK7CQfuJPMckZLl3ImqVx0fHtvmY6jhhcMj3KvscjlX54rcjpmlq7hNpbp48KtSPbfMRPVT3+Om83iar0dd9Sse1r4Zs/M5M9/Z1ad420oTUWwynmZUh31vW2dbry85/zew1wVyXElmX2r6igG0+ppiWx0U25tTbuW/9w/umhGVV7Bf9MdOLrW/lWQX/ZcL4sKuNuujc1Yfr29t6X2BCj/HsZVc9RtBRn4evPTPrv2RLdN4Pc1KMhJ2Zt+vRzi6Lfk4XT4uS4SAjGbDE907oyVLnIjI8E7FkJq8BPYhGv5d0nUpycX4mnmSDTDduIs1jVr5QzqP0CQc65uI/ofRU+QeH0nAmSYGE8jm6FU6Y2qBEvR16yGWanBUNoCCneP3gbsoIeYCflNulLvWytNePKYvzR3QiRm7D3UQmpnlJeYq6Psw+yw1FHh8d2+RjrWMDTNPUlVPaR7HRCqfzeptsDjO/M9e9fV3ato1GfJWDqRoZ2mCav429xjTVvuXx7xPKMSmPi2zMaaYfyRLaN1Noxg8haKMfXAf/ZUzK4GqjbfmwWXtr2uaHHeM1698Skzx87ZlZ+4AkPfisZOOuEKeezY1cCurey3SkoaG3sSn+P6era/m7cA96eiFGxKk39AkDuh/p5oqWt5dQrNMG3eUCTZ4Ik2cWdH0p/tFsWC6WSVKeZtngxa0urrKs0o8ZM3rM0YhoUB/khZKnkJeSp6augwf7hXvddWyXj62O6zFNs7ycOsLpvM4mm8XE78x1b1uX9m2jCV+tl2EALPy3nLbatzB9Qhn15XGRjQ3N9CN5wvpmQjHdMLTRD66t/zKZMrjaaHs+bNbemrf5JvZslmfT/s145GFhzww2tXuwkFqiuxvydxKmfyX8Q1i8tpHbiCwuO6NiRo8iG1yi8uGpu+3t7GfEIbpBoyTS3HnIA515NIVZXOvXVF2aYfmmJBPBm1Jd1yw+cnHIx0vHeUzTtClnSOpssm1K/M5I97Z16do2miIvwyZwsVcbXfrQVj5luMjGhq76ER/fBOasqv8ybelc5VPb3vr0X65jPFfZ2dBGHpIbG5DkNwzp12GbIgyNp57mJ/R4+ZogfiPfZGRaQ2q9Zv6TTElW0NuhY74/WhOinCjzpTnNEVY/SheZqdIE47wur1upu1U+vjrW0USaBhjpoUObDI5LXbq2DQ1hfdWervMHNdwkn22ZNmx7FfznRviwSXsb2hc66qtd8dXzDQxI5EkAQg6UbCwSH94MpO6wJ95D0qfLUSzsEU3YWNLr+2JKBhXXMsyk/IxhPWrKLE+oAXR0JNyUTnltYiboEjRQl9D6Wa5vLKzVMs1LTZfa4CSXcPl4YZpmsLwddF5lk61h53elujeqy4rYRoYQvhpP998VNbTFMn8Xedjq0pW28imjcVsRtNyPBPHNzgjfDxbp2n8ZizK42mhbOrcpn3X/5TnGc5WdDZV5hLHnGxiQqOmlkrflbsg0+1sPZfQbfzIbeJh43eIFFffwxBueimsC8xQ2kC2eEi+VTJ6tyscduTYxJkxdigTWz+KcOFbUp2eal5ou1dR19jgf4fvIJVQ+rpimGd/nvrY9i7vOszbZLH5+V+8T1XXp2jZ02OutVIZO0/2m+bvYq58uzWkrnzJcZBPbanEv0iwqcDVN9CNN+2YVPrIoJ3A/qKVr/2VMyuBmo+35VlU+1ZS1+eHGeK6ys8EkjzD2fAMDkvzmIGZGRyJ0Y3m5IdOcn+xlp6P4k5uOkxtQ57nTHTh6VCcmFIIYDbxucHmsm3j2EZc9OwOwzCd/pJwYoB+UnKeeoXCfyEeO7Om+yiZIXQqE1Y8crJWVxTyvZV1TrzKiI/wu++J6Fh+5OOXjqmMNpmnK+yY0ytg3H/3nsq/DUA8GNinvKfpdFtWAZvIzwMbv6nRvUpccXdtGEVtfFeW8rJdhkTJ92fqvnb0a69KTtvIpw0U2NLgvSiZEf5Y8I480Vb/EGNh5kPqH9E1bTGVhRdh+UE9b/sv4+bCTjQra8q1lPlXtrU2bH3CM5yo7G+rzCGPPv6X+vUH0oiPfrrZHNNqOWwyh6NMxDfdGpJsVq6dH97b6dEJbdJpZosUKGdHeASXXozWE94RD7NHe9kl0V0R/n06nZhuuh+Mp3X/CAY+6wI6VPzoulU9ST0Zzrw5+fiy/xCYh92yAuhQJqR/1FoQdJSMDLqI82s84L67rKdGBuB7fymlMD68jHRfudZWLYz5OOtZhmmZ034a071QduayH1oo31APnWWeThkTHKIpGP86Pfaqub7L1u0rdu9SFn+nSNgrY+uom7R4fkyhstQw16PVl6b+29mqqS1/ayqcMF9kIjR2e7tOlGFAsn+ElyqfXwj5TdeC0W+hHgvqmNYaysCJkP1hGe/7LePmwk40KGtN5jlQ+ST2YlHz4HsM239aeS/NkXGVnQ20eYez5uel0+qn6GZShvhRROpi6puBNPNwm7Z/6n/ks05pr8wEACCp80RX4HQCrCXwT3CRgz9Xg2F8D5PG+euTGKQBA88zoiNdJDMdozAEAAIAbBAISA3r3tihaHpdaQxoxO5LrSBvdmAYAYOR3zQwbX3MPAAAAgHZBQGJCtH5uTMM5ryHldX/qo5aOFE/bAgCEprdzTFPD9cwAAAAAWB+whwQAAAAAAADQGZghAQAAAAAAAHQGAhIAAAAAAABAZyAgAQAAAAAAAHQGAhIAAAAAAABAZyAgAQAAAAAAAHQGAhIAAAAAAABAZyAgAQAAAAAAAHQGAhIAAAAAAABARxD9f+OI0MZYOh1QAAAAAElFTkSuQmCC;" parent="1" vertex="1">
                    <mxGeometry x="2842.55" y="1292" width="574.9" height="133" as="geometry"/>
                </mxCell>
                <mxCell id="159" value="" style="rhombus;whiteSpace=wrap;html=1;" parent="1" vertex="1">
                    <mxGeometry x="1530" y="2630" width="80" height="80" as="geometry"/>
                </mxCell>
                <mxCell id="160" value="IdDireccion" style="ellipse;whiteSpace=wrap;html=1;" parent="1" vertex="1">
                    <mxGeometry x="212.5" y="1595" width="120" height="80" as="geometry"/>
                </mxCell>
                <mxCell id="161" value="IdUsuario" style="ellipse;whiteSpace=wrap;html=1;" parent="1" vertex="1">
                    <mxGeometry x="137.5" y="1800" width="120" height="80" as="geometry"/>
                </mxCell>
                <mxCell id="382" style="edgeStyle=none;html=1;exitX=0;exitY=0.25;exitDx=0;exitDy=0;entryX=1;entryY=0.5;entryDx=0;entryDy=0;" edge="1" parent="1" source="162" target="168">
                    <mxGeometry relative="1" as="geometry"/>
                </mxCell>
                <mxCell id="383" style="edgeStyle=none;html=1;exitX=0;exitY=0.5;exitDx=0;exitDy=0;entryX=1;entryY=0.5;entryDx=0;entryDy=0;" edge="1" parent="1" source="162" target="166">
                    <mxGeometry relative="1" as="geometry"/>
                </mxCell>
                <mxCell id="162" value="RedesSociales" style="rounded=0;whiteSpace=wrap;html=1;" parent="1" vertex="1">
                    <mxGeometry x="-450" y="500" width="120" height="60" as="geometry"/>
                </mxCell>
                <mxCell id="384" style="edgeStyle=none;html=1;exitX=0;exitY=0.5;exitDx=0;exitDy=0;entryX=1;entryY=0.5;entryDx=0;entryDy=0;" edge="1" parent="1" source="164" target="162">
                    <mxGeometry relative="1" as="geometry"/>
                </mxCell>
                <mxCell id="164" value="" style="rhombus;whiteSpace=wrap;html=1;" parent="1" vertex="1">
                    <mxGeometry x="-285" y="455" width="80" height="80" as="geometry"/>
                </mxCell>
                <mxCell id="166" value="Nombre" style="ellipse;whiteSpace=wrap;html=1;" parent="1" vertex="1">
                    <mxGeometry x="-690" y="550" width="120" height="80" as="geometry"/>
                </mxCell>
                <mxCell id="168" value="Id" style="ellipse;whiteSpace=wrap;html=1;" parent="1" vertex="1">
                    <mxGeometry x="-610" y="470" width="120" height="80" as="geometry"/>
                </mxCell>
                <mxCell id="169" value="" style="rounded=0;whiteSpace=wrap;html=1;" parent="1" vertex="1">
                    <mxGeometry x="3110" y="110" width="120" height="60" as="geometry"/>
                </mxCell>
                <mxCell id="170" value="" style="ellipse;whiteSpace=wrap;html=1;" parent="1" vertex="1">
                    <mxGeometry x="3090" y="220" width="120" height="80" as="geometry"/>
                </mxCell>
                <mxCell id="171" value="" style="rhombus;whiteSpace=wrap;html=1;" parent="1" vertex="1">
                    <mxGeometry x="3270" y="90" width="80" height="80" as="geometry"/>
                </mxCell>
                <mxCell id="172" value="" style="ellipse;whiteSpace=wrap;html=1;" parent="1" vertex="1">
                    <mxGeometry x="3230" y="200" width="120" height="80" as="geometry"/>
                </mxCell>
                <mxCell id="173" value="" style="ellipse;whiteSpace=wrap;html=1;" parent="1" vertex="1">
                    <mxGeometry x="2940" y="100" width="120" height="80" as="geometry"/>
                </mxCell>
                <mxCell id="174" value="" style="ellipse;whiteSpace=wrap;html=1;" parent="1" vertex="1">
                    <mxGeometry x="3070" y="-10" width="120" height="80" as="geometry"/>
                </mxCell>
                <mxCell id="175" value="" style="ellipse;whiteSpace=wrap;html=1;" parent="1" vertex="1">
                    <mxGeometry x="2950" y="200" width="120" height="80" as="geometry"/>
                </mxCell>
                <mxCell id="176" value="" style="rounded=0;whiteSpace=wrap;html=1;" parent="1" vertex="1">
                    <mxGeometry x="3110" y="470" width="120" height="60" as="geometry"/>
                </mxCell>
                <mxCell id="177" value="" style="ellipse;whiteSpace=wrap;html=1;" parent="1" vertex="1">
                    <mxGeometry x="3090" y="580" width="120" height="80" as="geometry"/>
                </mxCell>
                <mxCell id="178" value="" style="rhombus;whiteSpace=wrap;html=1;" parent="1" vertex="1">
                    <mxGeometry x="3270" y="450" width="80" height="80" as="geometry"/>
                </mxCell>
                <mxCell id="179" value="" style="ellipse;whiteSpace=wrap;html=1;" parent="1" vertex="1">
                    <mxGeometry x="3230" y="560" width="120" height="80" as="geometry"/>
                </mxCell>
                <mxCell id="180" value="" style="ellipse;whiteSpace=wrap;html=1;" parent="1" vertex="1">
                    <mxGeometry x="2940" y="460" width="120" height="80" as="geometry"/>
                </mxCell>
                <mxCell id="181" value="" style="ellipse;whiteSpace=wrap;html=1;" parent="1" vertex="1">
                    <mxGeometry x="3070" y="350" width="120" height="80" as="geometry"/>
                </mxCell>
                <mxCell id="182" value="" style="ellipse;whiteSpace=wrap;html=1;" parent="1" vertex="1">
                    <mxGeometry x="2950" y="560" width="120" height="80" as="geometry"/>
                </mxCell>
                <mxCell id="325" style="edgeStyle=none;html=1;exitX=1;exitY=0.5;exitDx=0;exitDy=0;entryX=0;entryY=0.5;entryDx=0;entryDy=0;" edge="1" parent="1" source="183" target="192">
                    <mxGeometry relative="1" as="geometry"/>
                </mxCell>
                <mxCell id="327" style="edgeStyle=none;html=1;exitX=0.75;exitY=1;exitDx=0;exitDy=0;entryX=0;entryY=0;entryDx=0;entryDy=0;" edge="1" parent="1" source="183" target="187">
                    <mxGeometry relative="1" as="geometry"/>
                </mxCell>
                <mxCell id="328" style="edgeStyle=none;html=1;exitX=0.25;exitY=1;exitDx=0;exitDy=0;entryX=1;entryY=0;entryDx=0;entryDy=0;" edge="1" parent="1" source="183" target="188">
                    <mxGeometry relative="1" as="geometry"/>
                </mxCell>
                <mxCell id="349" style="edgeStyle=none;html=1;exitX=0;exitY=0;exitDx=0;exitDy=0;entryX=1;entryY=0.5;entryDx=0;entryDy=0;" edge="1" parent="1" source="183" target="32">
                    <mxGeometry relative="1" as="geometry"/>
                </mxCell>
                <mxCell id="183" value="ListaComodidades" style="rounded=0;whiteSpace=wrap;html=1;" parent="1" vertex="1">
                    <mxGeometry x="1540" y="405" width="120" height="60" as="geometry"/>
                </mxCell>
                <mxCell id="187" value="IdComodidad" style="ellipse;whiteSpace=wrap;html=1;" parent="1" vertex="1">
                    <mxGeometry x="1600" y="495" width="120" height="80" as="geometry"/>
                </mxCell>
                <mxCell id="188" value="IdTipoHabitacion" style="ellipse;whiteSpace=wrap;html=1;" parent="1" vertex="1">
                    <mxGeometry x="1460" y="495" width="120" height="80" as="geometry"/>
                </mxCell>
                <mxCell id="321" style="edgeStyle=none;html=1;exitX=0.25;exitY=1;exitDx=0;exitDy=0;entryX=1;entryY=0;entryDx=0;entryDy=0;" edge="1" parent="1" source="190" target="194">
                    <mxGeometry relative="1" as="geometry"/>
                </mxCell>
                <mxCell id="322" style="edgeStyle=none;html=1;exitX=0.75;exitY=1;exitDx=0;exitDy=0;entryX=0;entryY=0;entryDx=0;entryDy=0;" edge="1" parent="1" source="190" target="195">
                    <mxGeometry relative="1" as="geometry"/>
                </mxCell>
                <mxCell id="190" value="Comodidades" style="rounded=0;whiteSpace=wrap;html=1;" parent="1" vertex="1">
                    <mxGeometry x="1790" y="505" width="120" height="60" as="geometry"/>
                </mxCell>
                <mxCell id="364" style="edgeStyle=none;html=1;exitX=1;exitY=0.5;exitDx=0;exitDy=0;entryX=0.25;entryY=0;entryDx=0;entryDy=0;" edge="1" parent="1" source="192" target="190">
                    <mxGeometry relative="1" as="geometry"/>
                </mxCell>
                <mxCell id="192" value="" style="rhombus;whiteSpace=wrap;html=1;" parent="1" vertex="1">
                    <mxGeometry x="1740" y="395" width="80" height="80" as="geometry"/>
                </mxCell>
                <mxCell id="194" value="Nombre" style="ellipse;whiteSpace=wrap;html=1;" parent="1" vertex="1">
                    <mxGeometry x="1720" y="595" width="120" height="80" as="geometry"/>
                </mxCell>
                <mxCell id="195" value="IdComodidad" style="ellipse;whiteSpace=wrap;html=1;" parent="1" vertex="1">
                    <mxGeometry x="1850" y="595" width="120" height="80" as="geometry"/>
                </mxCell>
                <mxCell id="273" style="edgeStyle=none;html=1;exitX=0;exitY=1;exitDx=0;exitDy=0;entryX=0.5;entryY=0;entryDx=0;entryDy=0;" edge="1" parent="1" source="197" target="203">
                    <mxGeometry relative="1" as="geometry"/>
                </mxCell>
                <mxCell id="197" value="TipoInstalacion" style="rounded=0;whiteSpace=wrap;html=1;" parent="1" vertex="1">
                    <mxGeometry x="-320" y="40" width="120" height="60" as="geometry"/>
                </mxCell>
                <mxCell id="214" style="edgeStyle=none;html=1;entryX=0.5;entryY=1;entryDx=0;entryDy=0;" parent="1" source="199" target="5" edge="1">
                    <mxGeometry relative="1" as="geometry"/>
                </mxCell>
                <mxCell id="199" value="" style="rhombus;whiteSpace=wrap;html=1;" parent="1" vertex="1">
                    <mxGeometry x="-100" y="80" width="80" height="80" as="geometry"/>
                </mxCell>
                <mxCell id="201" value="NombreInstalacion" style="ellipse;whiteSpace=wrap;html=1;" parent="1" vertex="1">
                    <mxGeometry x="-485" y="30" width="120" height="80" as="geometry"/>
                </mxCell>
                <mxCell id="203" value="IdTipoInstalacion" style="ellipse;whiteSpace=wrap;html=1;" parent="1" vertex="1">
                    <mxGeometry x="-425" y="120" width="120" height="80" as="geometry"/>
                </mxCell>
                <mxCell id="274" style="edgeStyle=none;html=1;exitX=0;exitY=0.5;exitDx=0;exitDy=0;entryX=1;entryY=0;entryDx=0;entryDy=0;" edge="1" parent="1" source="204" target="210">
                    <mxGeometry relative="1" as="geometry"/>
                </mxCell>
                <mxCell id="275" style="edgeStyle=none;html=1;exitX=0.5;exitY=1;exitDx=0;exitDy=0;entryX=0.5;entryY=0;entryDx=0;entryDy=0;" edge="1" parent="1" source="204" target="205">
                    <mxGeometry relative="1" as="geometry"/>
                </mxCell>
                <mxCell id="204" value="&lt;span style=&quot;color: rgb(0, 0, 0);&quot;&gt;ServiciosEstablecimiento&lt;/span&gt;" style="rounded=0;whiteSpace=wrap;html=1;" parent="1" vertex="1">
                    <mxGeometry x="-800" y="237.5" width="150" height="60" as="geometry"/>
                </mxCell>
                <mxCell id="205" value="IdServicio" style="ellipse;whiteSpace=wrap;html=1;" parent="1" vertex="1">
                    <mxGeometry x="-810" y="327.5" width="120" height="80" as="geometry"/>
                </mxCell>
                <mxCell id="276" style="edgeStyle=none;html=1;exitX=1;exitY=0.5;exitDx=0;exitDy=0;entryX=0;entryY=0.25;entryDx=0;entryDy=0;" edge="1" parent="1" source="206" target="51">
                    <mxGeometry relative="1" as="geometry"/>
                </mxCell>
                <mxCell id="206" value="" style="rhombus;whiteSpace=wrap;html=1;" parent="1" vertex="1">
                    <mxGeometry x="-570" y="217.5" width="80" height="80" as="geometry"/>
                </mxCell>
                <mxCell id="210" value="NombreServicio" style="ellipse;whiteSpace=wrap;html=1;" parent="1" vertex="1">
                    <mxGeometry x="-940" y="287.5" width="120" height="80" as="geometry"/>
                </mxCell>
                <mxCell id="212" style="edgeStyle=none;html=1;exitX=0;exitY=0.5;exitDx=0;exitDy=0;entryX=0.997;entryY=0.35;entryDx=0;entryDy=0;entryPerimeter=0;" parent="1" source="199" target="197" edge="1">
                    <mxGeometry relative="1" as="geometry"/>
                </mxCell>
                <mxCell id="213" style="edgeStyle=none;html=1;entryX=-0.007;entryY=0.334;entryDx=0;entryDy=0;entryPerimeter=0;" parent="1" source="199" target="2" edge="1">
                    <mxGeometry relative="1" as="geometry"/>
                </mxCell>
                <mxCell id="215" style="edgeStyle=none;html=1;entryX=0.975;entryY=0.357;entryDx=0;entryDy=0;entryPerimeter=0;" parent="1" source="206" target="204" edge="1">
                    <mxGeometry relative="1" as="geometry"/>
                </mxCell>
                <mxCell id="230" style="edgeStyle=none;html=1;exitX=0.5;exitY=1;exitDx=0;exitDy=0;entryX=0.5;entryY=0;entryDx=0;entryDy=0;" parent="1" source="216" target="225" edge="1">
                    <mxGeometry relative="1" as="geometry"/>
                </mxCell>
                <mxCell id="216" value="ListaActividades" style="rounded=0;whiteSpace=wrap;html=1;" parent="1" vertex="1">
                    <mxGeometry x="860" y="1852.5" width="120" height="60" as="geometry"/>
                </mxCell>
                <mxCell id="252" style="edgeStyle=none;html=1;exitX=0;exitY=0.5;exitDx=0;exitDy=0;entryX=1;entryY=0.5;entryDx=0;entryDy=0;" parent="1" source="220" target="216" edge="1">
                    <mxGeometry relative="1" as="geometry"/>
                </mxCell>
                <mxCell id="220" value="IdEmpresa" style="ellipse;whiteSpace=wrap;html=1;" parent="1" vertex="1">
                    <mxGeometry x="1030" y="1842.5" width="120" height="80" as="geometry"/>
                </mxCell>
                <mxCell id="253" style="edgeStyle=none;html=1;exitX=0;exitY=0.5;exitDx=0;exitDy=0;entryX=1;entryY=0.5;entryDx=0;entryDy=0;" parent="1" source="222" target="225" edge="1">
                    <mxGeometry relative="1" as="geometry"/>
                </mxCell>
                <mxCell id="222" value="IdActividad" style="ellipse;whiteSpace=wrap;html=1;" parent="1" vertex="1">
                    <mxGeometry x="1020" y="1972.5" width="120" height="80" as="geometry"/>
                </mxCell>
                <mxCell id="223" value="Actividades" style="rounded=0;whiteSpace=wrap;html=1;" parent="1" vertex="1">
                    <mxGeometry x="870" y="2107.5" width="120" height="60" as="geometry"/>
                </mxCell>
                <mxCell id="235" style="edgeStyle=none;html=1;exitX=0;exitY=0;exitDx=0;exitDy=0;entryX=0.75;entryY=1;entryDx=0;entryDy=0;" parent="1" source="224" target="223" edge="1">
                    <mxGeometry relative="1" as="geometry"/>
                </mxCell>
                <mxCell id="224" value="IdActividad" style="ellipse;whiteSpace=wrap;html=1;" parent="1" vertex="1">
                    <mxGeometry x="950" y="2197.5" width="120" height="80" as="geometry"/>
                </mxCell>
                <mxCell id="225" value="" style="rhombus;whiteSpace=wrap;html=1;" parent="1" vertex="1">
                    <mxGeometry x="880" y="1967.5" width="80" height="80" as="geometry"/>
                </mxCell>
                <mxCell id="229" value="NombreActividad" style="ellipse;whiteSpace=wrap;html=1;" parent="1" vertex="1">
                    <mxGeometry x="790" y="2197.5" width="120" height="80" as="geometry"/>
                </mxCell>
                <mxCell id="231" style="edgeStyle=none;html=1;exitX=0.5;exitY=1;exitDx=0;exitDy=0;entryX=0.43;entryY=0.011;entryDx=0;entryDy=0;entryPerimeter=0;" parent="1" source="225" target="223" edge="1">
                    <mxGeometry relative="1" as="geometry"/>
                </mxCell>
                <mxCell id="234" style="edgeStyle=none;html=1;exitX=1;exitY=0;exitDx=0;exitDy=0;entryX=0.209;entryY=1.002;entryDx=0;entryDy=0;entryPerimeter=0;" parent="1" source="229" target="223" edge="1">
                    <mxGeometry relative="1" as="geometry"/>
                </mxCell>
                <mxCell id="236" style="edgeStyle=none;html=1;exitX=0.5;exitY=1;exitDx=0;exitDy=0;entryX=0.5;entryY=0;entryDx=0;entryDy=0;" parent="1" source="237" target="247" edge="1">
                    <mxGeometry relative="1" as="geometry"/>
                </mxCell>
                <mxCell id="237" value="ListaServicios" style="rounded=0;whiteSpace=wrap;html=1;" parent="1" vertex="1">
                    <mxGeometry x="560" y="1852.5" width="120" height="60" as="geometry"/>
                </mxCell>
                <mxCell id="262" style="edgeStyle=none;html=1;exitX=1;exitY=1;exitDx=0;exitDy=0;entryX=0;entryY=0;entryDx=0;entryDy=0;" parent="1" source="238" target="216" edge="1">
                    <mxGeometry relative="1" as="geometry"/>
                </mxCell>
                <mxCell id="238" value="" style="rhombus;whiteSpace=wrap;html=1;" parent="1" vertex="1">
                    <mxGeometry x="790" y="1752.5" width="80" height="80" as="geometry"/>
                </mxCell>
                <mxCell id="239" style="edgeStyle=none;html=1;exitX=1;exitY=0.5;exitDx=0;exitDy=0;entryX=0;entryY=0.5;entryDx=0;entryDy=0;" parent="1" source="240" target="237" edge="1">
                    <mxGeometry relative="1" as="geometry"/>
                </mxCell>
                <mxCell id="240" value="IdEmpresa" style="ellipse;whiteSpace=wrap;html=1;" parent="1" vertex="1">
                    <mxGeometry x="390" y="1842.5" width="120" height="80" as="geometry"/>
                </mxCell>
                <mxCell id="254" style="edgeStyle=none;html=1;exitX=1;exitY=0.5;exitDx=0;exitDy=0;entryX=0;entryY=0.5;entryDx=0;entryDy=0;" parent="1" source="243" target="247" edge="1">
                    <mxGeometry relative="1" as="geometry"/>
                </mxCell>
                <mxCell id="243" value="IdServicio" style="ellipse;whiteSpace=wrap;html=1;" parent="1" vertex="1">
                    <mxGeometry x="415" y="1972.5" width="120" height="80" as="geometry"/>
                </mxCell>
                <mxCell id="244" value="Servicios" style="rounded=0;whiteSpace=wrap;html=1;" parent="1" vertex="1">
                    <mxGeometry x="570" y="2107.5" width="120" height="60" as="geometry"/>
                </mxCell>
                <mxCell id="245" style="edgeStyle=none;html=1;exitX=0;exitY=0;exitDx=0;exitDy=0;entryX=0.75;entryY=1;entryDx=0;entryDy=0;" parent="1" source="246" target="244" edge="1">
                    <mxGeometry relative="1" as="geometry"/>
                </mxCell>
                <mxCell id="246" value="IdServicio" style="ellipse;whiteSpace=wrap;html=1;" parent="1" vertex="1">
                    <mxGeometry x="650" y="2197.5" width="120" height="80" as="geometry"/>
                </mxCell>
                <mxCell id="247" value="" style="rhombus;whiteSpace=wrap;html=1;" parent="1" vertex="1">
                    <mxGeometry x="580" y="1967.5" width="80" height="80" as="geometry"/>
                </mxCell>
                <mxCell id="248" value="NombreServicio" style="ellipse;whiteSpace=wrap;html=1;" parent="1" vertex="1">
                    <mxGeometry x="490" y="2197.5" width="120" height="80" as="geometry"/>
                </mxCell>
                <mxCell id="249" style="edgeStyle=none;html=1;exitX=0.5;exitY=1;exitDx=0;exitDy=0;entryX=0.43;entryY=0.011;entryDx=0;entryDy=0;entryPerimeter=0;" parent="1" source="247" target="244" edge="1">
                    <mxGeometry relative="1" as="geometry"/>
                </mxCell>
                <mxCell id="250" style="edgeStyle=none;html=1;exitX=1;exitY=0;exitDx=0;exitDy=0;entryX=0.209;entryY=1.002;entryDx=0;entryDy=0;entryPerimeter=0;" parent="1" source="248" target="244" edge="1">
                    <mxGeometry relative="1" as="geometry"/>
                </mxCell>
                <mxCell id="256" style="edgeStyle=none;html=1;exitX=0;exitY=1;exitDx=0;exitDy=0;entryX=0.777;entryY=0.061;entryDx=0;entryDy=0;entryPerimeter=0;" parent="1" source="107" target="113" edge="1">
                    <mxGeometry relative="1" as="geometry"/>
                </mxCell>
                <mxCell id="257" style="edgeStyle=none;html=1;exitX=1;exitY=1;exitDx=0;exitDy=0;entryX=0.418;entryY=0.061;entryDx=0;entryDy=0;entryPerimeter=0;" parent="1" source="107" target="110" edge="1">
                    <mxGeometry relative="1" as="geometry"/>
                </mxCell>
                <mxCell id="258" style="edgeStyle=none;html=1;exitX=1;exitY=0.25;exitDx=0;exitDy=0;entryX=0.027;entryY=0.422;entryDx=0;entryDy=0;entryPerimeter=0;" parent="1" source="107" target="108" edge="1">
                    <mxGeometry relative="1" as="geometry"/>
                </mxCell>
                <mxCell id="266" style="edgeStyle=none;html=1;exitX=0.25;exitY=1;exitDx=0;exitDy=0;entryX=0.632;entryY=0.039;entryDx=0;entryDy=0;entryPerimeter=0;" edge="1" parent="1" source="23" target="29">
                    <mxGeometry relative="1" as="geometry"/>
                </mxCell>
                <mxCell id="267" style="edgeStyle=none;html=1;exitX=0.5;exitY=1;exitDx=0;exitDy=0;entryX=0.354;entryY=0.039;entryDx=0;entryDy=0;entryPerimeter=0;" edge="1" parent="1" source="23" target="24">
                    <mxGeometry relative="1" as="geometry"/>
                </mxCell>
                <mxCell id="272" style="edgeStyle=none;html=1;exitX=0;exitY=0.25;exitDx=0;exitDy=0;entryX=0.989;entryY=0.351;entryDx=0;entryDy=0;entryPerimeter=0;" edge="1" parent="1" source="197" target="201">
                    <mxGeometry relative="1" as="geometry"/>
                </mxCell>
                <mxCell id="278" style="edgeStyle=none;html=1;exitX=0;exitY=1;exitDx=0;exitDy=0;entryX=0.635;entryY=0.07;entryDx=0;entryDy=0;entryPerimeter=0;" edge="1" parent="1" source="51" target="55">
                    <mxGeometry relative="1" as="geometry"/>
                </mxCell>
                <mxCell id="279" style="edgeStyle=none;html=1;exitX=0.75;exitY=1;exitDx=0;exitDy=0;entryX=0.204;entryY=0.039;entryDx=0;entryDy=0;entryPerimeter=0;" edge="1" parent="1" source="51" target="57">
                    <mxGeometry relative="1" as="geometry"/>
                </mxCell>
                <mxCell id="332" style="edgeStyle=none;html=1;exitX=0;exitY=0;exitDx=0;exitDy=0;" edge="1" parent="1" source="329" target="152">
                    <mxGeometry relative="1" as="geometry"/>
                </mxCell>
                <mxCell id="394" style="edgeStyle=none;html=1;exitX=0;exitY=0.25;exitDx=0;exitDy=0;entryX=1;entryY=0.5;entryDx=0;entryDy=0;" edge="1" parent="1" source="329" target="393">
                    <mxGeometry relative="1" as="geometry"/>
                </mxCell>
                <mxCell id="329" value="HabitacionesEmpresa" style="rounded=0;whiteSpace=wrap;html=1;" vertex="1" parent="1">
                    <mxGeometry x="750" y="-10" width="120" height="60" as="geometry"/>
                </mxCell>
                <mxCell id="351" value="IdDireccion" style="ellipse;whiteSpace=wrap;html=1;" vertex="1" parent="1">
                    <mxGeometry x="-87.5" y="1650" width="120" height="80" as="geometry"/>
                </mxCell>
                <mxCell id="373" style="edgeStyle=none;html=1;exitX=0.25;exitY=1;exitDx=0;exitDy=0;entryX=1;entryY=0;entryDx=0;entryDy=0;" edge="1" parent="1" source="355" target="359">
                    <mxGeometry relative="1" as="geometry"/>
                </mxCell>
                <mxCell id="374" style="edgeStyle=none;html=1;exitX=0.75;exitY=1;exitDx=0;exitDy=0;entryX=0;entryY=0;entryDx=0;entryDy=0;" edge="1" parent="1" source="355" target="361">
                    <mxGeometry relative="1" as="geometry"/>
                </mxCell>
                <mxCell id="355" value="TipoCama" style="rounded=0;whiteSpace=wrap;html=1;" vertex="1" parent="1">
                    <mxGeometry x="1330" y="642.5" width="120" height="60" as="geometry"/>
                </mxCell>
                <mxCell id="376" style="edgeStyle=none;html=1;exitX=1;exitY=1;exitDx=0;exitDy=0;entryX=0;entryY=0;entryDx=0;entryDy=0;" edge="1" parent="1" source="357" target="355">
                    <mxGeometry relative="1" as="geometry">
                        <mxPoint x="1360" y="725" as="targetPoint"/>
                    </mxGeometry>
                </mxCell>
                <mxCell id="377" style="edgeStyle=none;html=1;exitX=0;exitY=0.5;exitDx=0;exitDy=0;entryX=1;entryY=0;entryDx=0;entryDy=0;" edge="1" parent="1" source="357" target="360">
                    <mxGeometry relative="1" as="geometry"/>
                </mxCell>
                <mxCell id="357" value="" style="rhombus;whiteSpace=wrap;html=1;" vertex="1" parent="1">
                    <mxGeometry x="1175" y="575" width="80" height="80" as="geometry"/>
                </mxCell>
                <mxCell id="359" value="NombreCama" style="ellipse;whiteSpace=wrap;html=1;" vertex="1" parent="1">
                    <mxGeometry x="1300" y="755" width="120" height="80" as="geometry"/>
                </mxCell>
                <mxCell id="360" value="IDTipoCama" style="ellipse;whiteSpace=wrap;html=1;" vertex="1" parent="1">
                    <mxGeometry x="1017.5" y="575" width="120" height="80" as="geometry"/>
                </mxCell>
                <mxCell id="361" value="IdTipoCama" style="ellipse;whiteSpace=wrap;html=1;" vertex="1" parent="1">
                    <mxGeometry x="1460" y="717" width="120" height="80" as="geometry"/>
                </mxCell>
                <mxCell id="366" style="edgeStyle=none;html=1;exitX=0.5;exitY=1;exitDx=0;exitDy=0;entryX=0.631;entryY=0.031;entryDx=0;entryDy=0;entryPerimeter=0;" edge="1" parent="1" source="44" target="50">
                    <mxGeometry relative="1" as="geometry"/>
                </mxCell>
                <mxCell id="414" style="edgeStyle=none;html=1;exitX=0.5;exitY=1;exitDx=0;exitDy=0;entryX=1;entryY=0;entryDx=0;entryDy=0;" edge="1" parent="1" source="368" target="44">
                    <mxGeometry relative="1" as="geometry"/>
                </mxCell>
                <mxCell id="368" value="DatosReservacion" style="rhombus;whiteSpace=wrap;html=1;" vertex="1" parent="1">
                    <mxGeometry x="825" y="900" width="120" height="85" as="geometry"/>
                </mxCell>
                <mxCell id="380" style="edgeStyle=none;html=1;exitX=0.5;exitY=1;exitDx=0;exitDy=0;entryX=0.5;entryY=0;entryDx=0;entryDy=0;" edge="1" parent="1" source="378" target="107">
                    <mxGeometry relative="1" as="geometry"/>
                </mxCell>
                <mxCell id="378" value="" style="rhombus;whiteSpace=wrap;html=1;" vertex="1" parent="1">
                    <mxGeometry x="720" y="1370" width="80" height="80" as="geometry"/>
                </mxCell>
                <mxCell id="389" value="IdEmpresa" style="ellipse;whiteSpace=wrap;html=1;" vertex="1" parent="1">
                    <mxGeometry x="-205" y="350" width="120" height="80" as="geometry"/>
                </mxCell>
                <mxCell id="395" style="edgeStyle=none;html=1;exitX=0;exitY=0.5;exitDx=0;exitDy=0;entryX=1;entryY=0;entryDx=0;entryDy=0;" edge="1" parent="1" source="393" target="2">
                    <mxGeometry relative="1" as="geometry"/>
                </mxCell>
                <mxCell id="393" value="" style="rhombus;whiteSpace=wrap;html=1;" vertex="1" parent="1">
                    <mxGeometry x="450" y="-5" width="80" height="80" as="geometry"/>
                </mxCell>
                <mxCell id="397" style="edgeStyle=none;html=1;exitX=0;exitY=0.5;exitDx=0;exitDy=0;entryX=1;entryY=0.5;entryDx=0;entryDy=0;" edge="1" parent="1" source="396" target="16">
                    <mxGeometry relative="1" as="geometry"/>
                </mxCell>
                <mxCell id="396" value="CodigoPais" style="ellipse;whiteSpace=wrap;html=1;" vertex="1" parent="1">
                    <mxGeometry x="260" y="1267.5" width="120" height="80" as="geometry"/>
                </mxCell>
                <mxCell id="403" value="" style="rhombus;whiteSpace=wrap;html=1;" vertex="1" parent="1">
                    <mxGeometry x="970" y="-190" width="80" height="80" as="geometry"/>
                </mxCell>
            </root>
        </mxGraphModel>
    </diagram>
</mxfile>